<svg xmlns="http://www.w3.org/2000/svg" xmlns:xlink="http://www.w3.org/1999/xlink" version="1.1" class="marks" width="1015" height="347" viewBox="0 0 1015 347"><rect width="1015" height="347" fill="white"/><g fill="none" stroke-miterlimit="10" transform="translate(58,10)"><g class="mark-group role-frame root" role="graphics-object" aria-roledescription="group mark container"><g transform="translate(0,0)"><path class="background" aria-hidden="true" d="M0.5,0.5h900v300h-900Z" stroke="#ddd"/><g><g class="mark-group role-axis" aria-hidden="true"><g transform="translate(0.5,300.5)"><path class="background" aria-hidden="true" d="M0,0h0v0h0Z" pointer-events="none"/><g><g class="mark-rule role-axis-grid" pointer-events="none"><line transform="translate(0,-300)" x2="0" y2="300" stroke="#ddd" stroke-width="1" opacity="1"/><line transform="translate(76,-300)" x2="0" y2="300" stroke="#ddd" stroke-width="1" opacity="1"/><line transform="translate(148,-300)" x2="0" y2="300" stroke="#ddd" stroke-width="1" opacity="1"/><line transform="translate(224,-300)" x2="0" y2="300" stroke="#ddd" stroke-width="1" opacity="1"/><line transform="translate(298,-300)" x2="0" y2="300" stroke="#ddd" stroke-width="1" opacity="1"/><line transform="translate(375,-300)" x2="0" y2="300" stroke="#ddd" stroke-width="1" opacity="1"/><line transform="translate(449,-300)" x2="0" y2="300" stroke="#ddd" stroke-width="1" opacity="1"/><line transform="translate(525,-300)" x2="0" y2="300" stroke="#ddd" stroke-width="1" opacity="1"/><line transform="translate(602,-300)" x2="0" y2="300" stroke="#ddd" stroke-width="1" opacity="1"/><line transform="translate(676,-300)" x2="0" y2="300" stroke="#ddd" stroke-width="1" opacity="1"/><line transform="translate(752,-300)" x2="0" y2="300" stroke="#ddd" stroke-width="1" opacity="1"/><line transform="translate(826,-300)" x2="0" y2="300" stroke="#ddd" stroke-width="1" opacity="1"/></g></g><path class="foreground" aria-hidden="true" d="" pointer-events="none" display="none"/></g></g><g class="mark-group role-axis" aria-hidden="true"><g transform="translate(0.5,0.5)"><path class="background" aria-hidden="true" d="M0,0h0v0h0Z" pointer-events="none"/><g><g class="mark-rule role-axis-grid" pointer-events="none"><line transform="translate(0,300)" x2="900" y2="0" stroke="#ddd" stroke-width="1" opacity="1"/><line transform="translate(0,270)" x2="900" y2="0" stroke="#ddd" stroke-width="1" opacity="1"/><line transform="translate(0,240)" x2="900" y2="0" stroke="#ddd" stroke-width="1" opacity="1"/><line transform="translate(0,210)" x2="900" y2="0" stroke="#ddd" stroke-width="1" opacity="1"/><line transform="translate(0,180)" x2="900" y2="0" stroke="#ddd" stroke-width="1" opacity="1"/><line transform="translate(0,150)" x2="900" y2="0" stroke="#ddd" stroke-width="1" opacity="1"/><line transform="translate(0,120)" x2="900" y2="0" stroke="#ddd" stroke-width="1" opacity="1"/><line transform="translate(0,90)" x2="900" y2="0" stroke="#ddd" stroke-width="1" opacity="1"/><line transform="translate(0,60)" x2="900" y2="0" stroke="#ddd" stroke-width="1" opacity="1"/><line transform="translate(0,30)" x2="900" y2="0" stroke="#ddd" stroke-width="1" opacity="1"/><line transform="translate(0,0)" x2="900" y2="0" stroke="#ddd" stroke-width="1" opacity="1"/></g></g><path class="foreground" aria-hidden="true" d="" pointer-events="none" display="none"/></g></g><g class="mark-group role-axis" role="graphics-symbol" aria-roledescription="axis" aria-label="X-axis titled 'Date' for a time scale with values from Wednesday, 01 January 2020, 12:00:00 AM to Thursday, 31 December 2020, 12:00:00 AM"><g transform="translate(0.5,300.5)"><path class="background" aria-hidden="true" d="M0,0h0v0h0Z" pointer-events="none"/><g><g class="mark-rule role-axis-tick" pointer-events="none"><line transform="translate(0,0)" x2="0" y2="5" stroke="#888" stroke-width="1" opacity="1"/><line transform="translate(76,0)" x2="0" y2="5" stroke="#888" stroke-width="1" opacity="1"/><line transform="translate(148,0)" x2="0" y2="5" stroke="#888" stroke-width="1" opacity="1"/><line transform="translate(224,0)" x2="0" y2="5" stroke="#888" stroke-width="1" opacity="1"/><line transform="translate(298,0)" x2="0" y2="5" stroke="#888" stroke-width="1" opacity="1"/><line transform="translate(375,0)" x2="0" y2="5" stroke="#888" stroke-width="1" opacity="1"/><line transform="translate(449,0)" x2="0" y2="5" stroke="#888" stroke-width="1" opacity="1"/><line transform="translate(525,0)" x2="0" y2="5" stroke="#888" stroke-width="1" opacity="1"/><line transform="translate(602,0)" x2="0" y2="5" stroke="#888" stroke-width="1" opacity="1"/><line transform="translate(676,0)" x2="0" y2="5" stroke="#888" stroke-width="1" opacity="1"/><line transform="translate(752,0)" x2="0" y2="5" stroke="#888" stroke-width="1" opacity="1"/><line transform="translate(826,0)" x2="0" y2="5" stroke="#888" stroke-width="1" opacity="1"/></g><g class="mark-text role-axis-label" pointer-events="none"><text text-anchor="start" transform="translate(0,15)" font-family="sans-serif" font-size="10px" fill="#000" opacity="1">2020</text><text text-anchor="middle" transform="translate(76.43835616438356,15)" font-family="sans-serif" font-size="10px" fill="#000" opacity="1">February</text><text text-anchor="middle" transform="translate(147.94520547945206,15)" font-family="sans-serif" font-size="10px" fill="#000" opacity="1">March</text><text text-anchor="middle" transform="translate(224.28082191780823,15)" font-family="sans-serif" font-size="10px" fill="#000" opacity="1">April</text><text text-anchor="middle" transform="translate(298.25342465753425,15)" font-family="sans-serif" font-size="10px" fill="#000" opacity="1">May</text><text text-anchor="middle" transform="translate(374.6917808219178,15)" font-family="sans-serif" font-size="10px" fill="#000" opacity="1">June</text><text text-anchor="middle" transform="translate(448.66438356164383,15)" font-family="sans-serif" font-size="10px" fill="#000" opacity="1">July</text><text text-anchor="middle" transform="translate(525.1027397260274,15)" font-family="sans-serif" font-size="10px" fill="#000" opacity="1">August</text><text text-anchor="middle" transform="translate(601.5410958904109,15)" font-family="sans-serif" font-size="10px" fill="#000" opacity="1">September</text><text text-anchor="middle" transform="translate(675.513698630137,15)" font-family="sans-serif" font-size="10px" fill="#000" opacity="1">October</text><text text-anchor="middle" transform="translate(751.9520547945206,15)" font-family="sans-serif" font-size="10px" fill="#000" opacity="1">November</text><text text-anchor="middle" transform="translate(826.027397260274,15)" font-family="sans-serif" font-size="10px" fill="#000" opacity="1">December</text></g><g class="mark-rule role-axis-domain" pointer-events="none"><line transform="translate(0,0)" x2="900" y2="0" stroke="#888" stroke-width="1" opacity="1"/></g><g class="mark-text role-axis-title" pointer-events="none"><text text-anchor="middle" transform="translate(450,30)" font-family="sans-serif" font-size="11px" font-weight="bold" fill="#000" opacity="1">Date</text></g></g><path class="foreground" aria-hidden="true" d="" pointer-events="none" display="none"/></g></g><g class="mark-group role-axis" role="graphics-symbol" aria-roledescription="axis" aria-label="Y-axis titled 'trips' for a linear scale with values from 0 to 50,000"><g transform="translate(0.5,0.5)"><path class="background" aria-hidden="true" d="M0,0h0v0h0Z" pointer-events="none"/><g><g class="mark-rule role-axis-tick" pointer-events="none"><line transform="translate(0,300)" x2="-5" y2="0" stroke="#888" stroke-width="1" opacity="1"/><line transform="translate(0,270)" x2="-5" y2="0" stroke="#888" stroke-width="1" opacity="1"/><line transform="translate(0,240)" x2="-5" y2="0" stroke="#888" stroke-width="1" opacity="1"/><line transform="translate(0,210)" x2="-5" y2="0" stroke="#888" stroke-width="1" opacity="1"/><line transform="translate(0,180)" x2="-5" y2="0" stroke="#888" stroke-width="1" opacity="1"/><line transform="translate(0,150)" x2="-5" y2="0" stroke="#888" stroke-width="1" opacity="1"/><line transform="translate(0,120)" x2="-5" y2="0" stroke="#888" stroke-width="1" opacity="1"/><line transform="translate(0,90)" x2="-5" y2="0" stroke="#888" stroke-width="1" opacity="1"/><line transform="translate(0,60)" x2="-5" y2="0" stroke="#888" stroke-width="1" opacity="1"/><line transform="translate(0,30)" x2="-5" y2="0" stroke="#888" stroke-width="1" opacity="1"/><line transform="translate(0,0)" x2="-5" y2="0" stroke="#888" stroke-width="1" opacity="1"/></g><g class="mark-text role-axis-label" pointer-events="none"><text text-anchor="end" transform="translate(-7,303)" font-family="sans-serif" font-size="10px" fill="#000" opacity="1">0</text><text text-anchor="end" transform="translate(-7,273)" font-family="sans-serif" font-size="10px" fill="#000" opacity="1">5,000</text><text text-anchor="end" transform="translate(-7,243)" font-family="sans-serif" font-size="10px" fill="#000" opacity="1">10,000</text><text text-anchor="end" transform="translate(-7,213)" font-family="sans-serif" font-size="10px" fill="#000" opacity="1">15,000</text><text text-anchor="end" transform="translate(-7,183)" font-family="sans-serif" font-size="10px" fill="#000" opacity="1">20,000</text><text text-anchor="end" transform="translate(-7,153)" font-family="sans-serif" font-size="10px" fill="#000" opacity="1">25,000</text><text text-anchor="end" transform="translate(-7,123)" font-family="sans-serif" font-size="10px" fill="#000" opacity="1">30,000</text><text text-anchor="end" transform="translate(-7,93.00000000000001)" font-family="sans-serif" font-size="10px" fill="#000" opacity="1">35,000</text><text text-anchor="end" transform="translate(-7,62.999999999999986)" font-family="sans-serif" font-size="10px" fill="#000" opacity="1">40,000</text><text text-anchor="end" transform="translate(-7,32.99999999999999)" font-family="sans-serif" font-size="10px" fill="#000" opacity="1">45,000</text><text text-anchor="end" transform="translate(-7,3)" font-family="sans-serif" font-size="10px" fill="#000" opacity="1">50,000</text></g><g class="mark-rule role-axis-domain" pointer-events="none"><line transform="translate(0,300)" x2="0" y2="-300" stroke="#888" stroke-width="1" opacity="1"/></g><g class="mark-text role-axis-title" pointer-events="none"><text text-anchor="middle" transform="translate(-41.5859375,150) rotate(-90) translate(0,-2)" font-family="sans-serif" font-size="11px" font-weight="bold" fill="#000" opacity="1">trips</text></g></g><path class="foreground" aria-hidden="true" d="" pointer-events="none" display="none"/></g></g><g class="mark-group role-scope pathgroup" role="graphics-object" aria-roledescription="group mark container"><g transform="translate(0,0)"><path class="background" aria-hidden="true" d="M0,0h900v300h-900Z"/><g><g class="mark-line role-mark marks" role="graphics-object" aria-roledescription="line mark container"><path aria-label="label: MI; Date: Jan 01, 2020; trips: 9580" role="graphics-symbol" aria-roledescription="line mark" d="M0,242.52L2.4657534246575343,164.17800000000003L4.931506849315069,189.702L7.397260273972602,202.39800000000002L9.863013698630137,205.89000000000001L12.32876712328767,152.598L14.794520547945204,139.39200000000002L17.26027397260274,151.17000000000002L19.726027397260275,158.94000000000003L22.191780821917806,131.94L24.65753424657534,152.37L27.123287671232877,162.37199999999999L29.58904109589041,134.646L32.054794520547944,146.514L34.52054794520548,123.00000000000001L36.986301369863014,143.29199999999997L39.45205479452055,176.16600000000003L41.917808219178085,252.78L44.38356164383561,213.46200000000002L46.849315068493155,211.99800000000002L49.31506849315068,166.05L51.78082191780822,149.28599999999997L54.24657534246575,135.48600000000002L56.71232876712329,130.23000000000002L59.17808219178082,238.326L61.64383561643835,186.61199999999997L64.10958904109589,141.774L66.57534246575342,131.57999999999998L69.04109589041096,135.738L71.5068493150685,140.574L73.97260273972603,138.15L76.43835616438356,184.44L78.9041095890411,205.03799999999998L81.36986301369863,128.16600000000003L83.83561643835617,123.36L86.30136986301369,124.69800000000001L88.76712328767123,183.88799999999998L91.23287671232876,182.364L93.69863013698631,192.45L96.16438356164385,196.926L98.63013698630137,205.152L101.0958904109589,168.73200000000003L103.56164383561644,131.916L106.02739726027397,167.382L108.4931506849315,168.636L110.95890410958903,224.814L113.42465753424658,212.25L115.89041095890411,173.73600000000002L118.35616438356163,148.308L120.82191780821918,135.438L123.2876712328767,151.48800000000003L125.75342465753425,163.668L128.21917808219177,183.666L130.6849315068493,175.84199999999998L133.15068493150685,123.84599999999999L135.61643835616437,162.492L138.08219178082192,146.418L140.54794520547944,146.53199999999998L143.013698630137,148.29L145.47945205479454,200.44199999999998L147.94520547945206,199.23000000000002L150.4109589041096,124.662L152.87671232876713,142.68L155.34246575342468,119.586L157.8082191780822,116.05199999999999L160.27397260273972,184.76399999999998L162.73972602739727,185.12400000000002L165.2054794520548,182.56799999999998L167.56849315068493,128.226L170.03424657534245,122.01599999999999L172.5,129.26999999999998L174.96575342465755,153.68400000000003L177.43150684931507,188.004L179.89726027397262,204.048L182.36301369863014,222.012L184.8287671232877,221.64600000000002L187.2945205479452,241.60199999999998L189.76027397260273,231.99L192.22602739726028,251.05200000000002L194.6917808219178,238.04999999999998L197.15753424657535,248.814L199.62328767123287,261.858L202.0890410958904,288.372L204.55479452054794,258.306L207.02054794520546,269.874L209.486301369863,257.838L211.95205479452054,254.25600000000003L214.41780821917808,278.598L216.88356164383563,278.88L219.34931506849315,265.25399999999996L221.8150684931507,265.524L224.28082191780823,259.566L226.74657534246577,260.262L229.2123287671233,272.154L231.67808219178082,257.766L234.14383561643834,261.714L236.60958904109592,255.72000000000003L239.07534246575344,253.962L241.54109589041096,258.024L244.00684931506848,266.712L246.472602739726,261.114L248.93835616438358,252.618L251.4041095890411,256.224L253.86986301369862,281.754L256.33561643835617,251.214L258.8013698630137,253.86599999999999L261.26712328767127,257.772L263.7328767123288,256.866L266.1986301369863,266.21999999999997L268.66438356164383,244.90200000000002L271.13013698630135,253.35000000000002L273.59589041095893,261.468L276.06164383561645,250.99200000000002L278.527397260274,256.548L280.9931506849315,269.226L283.458904109589,232.51199999999997L285.9246575342466,276.66L288.3904109589041,257.532L290.85616438356163,234.93L293.32191780821915,250.96200000000002L295.7876712328767,264.144L298.25342465753425,248.304L300.7191780821918,220.794L303.1849315068493,228.648L305.6506849315068,237.612L308.11643835616434,234.084L310.5821917808219,258.228L313.04794520547944,226.932L315.51369863013696,258.024L317.97945205479454,246.288L320.44520547945206,229.878L322.91095890410963,248.29800000000003L325.37671232876716,231.61200000000002L327.8424657534247,228.264L330.3082191780822,226.79399999999998L332.7739726027397,215.094L335.2397260273973,212.70000000000002L337.7054794520548,222.05400000000003L340.17123287671234,226.188L342.63698630136986,224.412L345.1027397260274,217.038L347.56849315068496,215.96400000000003L350.0342465753425,219.108L352.5,253.368L354.9657534246575,219.88199999999998L357.43150684931504,218.39400000000003L359.8972602739726,213.26999999999998L362.36301369863014,209.616L364.82876712328766,214.73400000000004L367.2945205479452,204.792L369.7602739726027,198.47400000000002L372.2260273972603,202.87199999999999L374.6917808219178,212.322L377.1575342465753,225.44400000000002L379.62328767123284,245.23199999999997L382.08904109589037,233.19L384.55479452054794,234.78L387.02054794520546,231.18599999999998L389.486301369863,207.23399999999998L391.9520547945205,200.22L394.4178082191781,197.91L396.8835616438356,195.588L399.3493150684931,213.71999999999997L401.8150684931507,183.672L404.2808219178082,190.75799999999998L406.7465753424658,202.64400000000003L409.2123287671233,198.384L411.67808219178085,188.136L414.14383561643837,185.72400000000002L416.6095890410959,188.16L419.07534246575347,176.34L421.541095890411,191.478L424.0068493150685,201.354L426.472602739726,191.41800000000003L428.93835616438355,178.602L431.4041095890411,179.874L433.86986301369865,176.31L436.33561643835617,173.75400000000002L438.8013698630137,203.83200000000002L441.2671232876712,200.07000000000002L443.7328767123288,184.056L446.1986301369863,175.85399999999998L448.66438356164383,176.562L451.1301369863014,165.594L453.59589041095893,190.79399999999998L456.06164383561645,199.63799999999998L458.527397260274,197.328L460.9931506849315,202.03799999999998L463.458904109589,164.62800000000001L465.92465753424653,168.978L468.39041095890406,156.648L470.8561643835616,244.87199999999999L473.3219178082192,183.498L475.78767123287673,171.79799999999997L478.25342465753425,163.998L480.7191780821918,152.844L483.18493150684935,147.876L485.6506849315069,146.472L488.1164383561644,160.20000000000002L490.5821917808219,170.886L493.04794520547944,185.808L495.51369863013696,174.46800000000002L497.9794520547946,155.526L500.4452054794521,185.77799999999996L502.91095890410963,160.53L505.37671232876716,161.982L507.8424657534247,163.60800000000003L510.3082191780822,175.272L512.7739726027397,168.78L515.2397260273972,154.89L517.7054794520548,143.898L520.1712328767123,150.456L522.6369863013699,156.91800000000003L525.1027397260274,161.90399999999997L527.568493150685,176.178L530.0342465753425,160.10399999999998L532.5,202.50599999999997L534.9657534246576,141.684L537.431506849315,144.642L539.8972602739726,173.82600000000002L542.3630136986301,161.964L544.8287671232877,169.194L547.2945205479452,156.306L549.7602739726028,148.11L552.2260273972603,158.418L554.6917808219179,166.464L557.1575342465753,139.788L559.6232876712329,157.24200000000002L562.0890410958904,221.4L564.554794520548,160.30200000000002L567.0205479452054,146.42399999999998L569.486301369863,155.82L571.9520547945206,148.044L574.4178082191781,142.938L576.8835616438356,166.29L579.3493150684932,170.50799999999998L581.8150684931506,156.6L584.2808219178082,149.496L586.7465753424657,128.916L589.2123287671233,155.46L591.6780821917807,141.648L594.1438356164383,168.864L596.6095890410959,163.76399999999998L599.0753424657535,147.95999999999998L601.5410958904109,147.51000000000002L604.0068493150685,150.88199999999998L606.4726027397261,150.348L608.9383561643835,140.65800000000002L611.4041095890411,166.212L613.8698630136986,178.674L616.3356164383562,169.27200000000002L618.8013698630136,142.14600000000002L621.2671232876713,128.052L623.7328767123288,179.29199999999997L626.1986301369864,121.77000000000001L628.6643835616438,141.744L631.1301369863014,159.98399999999998L633.5958904109589,136.68L636.0616438356165,124.91399999999999L638.5273972602739,119.46L640.9931506849315,117.14999999999999L643.458904109589,118.64400000000002L645.9246575342466,155.40599999999998L648.3904109589041,170.298L650.8561643835617,145.392L653.3219178082192,126.06600000000002L655.7876712328767,117.726L658.2534246575342,123.55199999999999L660.7191780821918,116.268L663.1849315068492,139.62599999999998L665.6506849315068,151.554L668.1164383561644,136.35600000000002L670.582191780822,159.07799999999997L673.0479452054794,117.21000000000001L675.513698630137,113.14200000000001L677.9794520547945,128.454L680.445205479452,144.348L682.9109589041095,157.71L685.3767123287671,136.626L687.8424657534247,118.80000000000001L690.3082191780821,121.47599999999998L692.7739726027397,118.44599999999998L695.2397260273973,120.23400000000001L697.7054794520549,151.62000000000003L700.1712328767123,164.02800000000002L702.6369863013699,253.416L705.1027397260274,174.408L707.568493150685,111.75000000000001L710.0342465753424,110.83800000000001L712.5,220.218L714.9657534246575,148.596L717.4315068493152,163.458L719.8972602739726,139.608L722.3630136986302,134.388L724.8287671232877,117.27600000000001L727.2945205479452,121.03800000000001L729.7602739726027,113.69399999999999L732.2260273972603,137.142L734.6917808219177,175.476L737.1575342465753,174.906L739.6232876712328,120.24599999999998L742.0890410958905,150.744L744.554794520548,247.578L747.0205479452055,199.56L749.486301369863,164.70600000000002L751.9520547945206,223.06199999999998L754.5205479452055,168.82799999999997L756.986301369863,147.846L759.4520547945206,150.06L761.917808219178,135.618L764.3835616438356,126.59400000000001L766.8493150684932,151.35600000000002L769.3150684931508,161.09999999999997L771.7808219178082,138.114L774.2465753424658,121.296L776.7123287671233,188.862L779.1780821917808,194.694L781.6438356164383,183.12L784.1095890410959,162.75L786.5753424657534,192.528L789.0410958904109,165.858L791.5068493150685,162.31199999999998L793.9726027397261,183.978L796.4383561643835,171.186L798.9041095890411,149.058L801.3698630136986,167.526L803.8356164383562,199.728L806.3013698630136,193.24800000000002L808.7671232876712,172.15800000000002L811.2328767123288,165.99L813.6986301369863,241.30200000000002L816.1643835616438,196.89600000000002L818.6301369863014,195.714L821.0958904109589,195.72L823.5616438356165,237.186L826.027397260274,167.142L828.4931506849315,176.29800000000003L830.9589041095891,169.248L833.4246575342465,195.684L835.8904109589041,222.972L838.3561643835616,205.428L840.8219178082193,191.064L843.2876712328767,191.424L845.7534246575343,200.154L848.2191780821918,170.952L850.6849315068494,160.794L853.1506849315068,183.93L855.6164383561644,183.042L858.0821917808219,229.158L860.5479452054794,183.234L863.0136986301369,226.554L865.4794520547946,299.622L867.945205479452,268.302L870.4109589041096,264.6L872.8767123287671,260.976L875.3424657534247,223.62L877.8082191780821,207.156L880.2739726027397,199.866L882.7397260273972,219.57L885.2054794520548,274.818L887.6712328767122,251.68800000000002L890.1369863013699,244.746L892.6027397260274,209.17200000000003L895.068493150685,216.33599999999998L897.5342465753424,210.13800000000003L900,234.132" stroke="#f58518" stroke-width="2"/></g></g><path class="foreground" aria-hidden="true" d="" display="none"/></g><g transform="translate(0,0)"><path class="background" aria-hidden="true" d="M0,0h900v300h-900Z"/><g><g class="mark-line role-mark marks" role="graphics-object" aria-roledescription="line mark container"><path aria-label="label: MS; Date: Jan 01, 2020; trips: 7061" role="graphics-symbol" aria-roledescription="line mark" d="M0,257.634L2.4657534246575343,201.126L4.931506849315069,229.656L7.397260273972602,233.892L9.863013698630137,239.646L12.32876712328767,204.588L14.794520547945204,195.378L17.26027397260274,207.36L19.726027397260275,217.11599999999999L22.191780821917806,182.178L24.65753424657534,144.018L27.123287671232877,153.20999999999998L29.58904109589041,186.594L32.054794520547944,203.688L34.52054794520548,172.02L36.986301369863014,201.342L39.45205479452055,230.94L41.917808219178085,273.18L44.38356164383561,243.186L46.849315068493155,252.348L49.31506849315068,222.58200000000002L51.78082191780822,205.59599999999998L54.24657534246575,193.566L56.71232876712329,182.72400000000002L59.17808219178082,263.616L61.64383561643835,215.59199999999998L64.10958904109589,196.254L66.57534246575342,193.596L69.04109589041096,197.436L71.5068493150685,202.89600000000002L73.97260273972603,196.86L76.43835616438356,220.794L78.9041095890411,238.536L81.36986301369863,174.37199999999999L83.83561643835617,183.54L86.30136986301369,192.096L88.76712328767123,235.35L91.23287671232876,235.12199999999999L93.69863013698631,228.204L96.16438356164385,224.472L98.63013698630137,244.8L101.0958904109589,220.308L103.56164383561644,191.97L106.02739726027397,222.774L108.4931506849315,224.868L110.95890410958903,256.272L113.42465753424658,238.866L115.89041095890411,203.778L118.35616438356163,204.54L120.82191780821918,189.45600000000002L123.2876712328767,209.766L125.75342465753425,219.636L128.21917808219177,203.44199999999998L130.6849315068493,177.114L133.15068493150685,163.854L135.61643835616437,216.288L138.08219178082192,201.59999999999997L140.54794520547944,209.874L143.013698630137,209.466L145.47945205479454,239.382L147.94520547945206,229.29L150.4109589041096,161.64600000000002L152.87671232876713,181.92000000000002L155.34246575342468,157.10399999999998L157.8082191780822,160.08L160.27397260273972,226.218L162.73972602739727,202.89000000000001L165.2054794520548,171.336L167.56849315068493,101.934L170.03424657534245,126.87000000000002L172.5,134.268L174.96575342465755,167.352L177.43150684931507,182.45399999999998L179.89726027397262,170.346L182.36301369863014,195.38400000000001L184.8287671232877,222.666L187.2945205479452,233.316L189.76027397260273,213.35399999999998L192.22602739726028,243.084L194.6917808219178,207.20399999999998L197.15753424657535,197.96999999999997L199.62328767123287,241.89600000000002L202.0890410958904,290.778L204.55479452054794,240.70200000000003L207.02054794520546,269.442L209.486301369863,237.03L211.95205479452054,219.99L214.41780821917808,277.074L216.88356164383563,273.888L219.34931506849315,259.896L221.8150684931507,260.406L224.28082191780823,241.29600000000002L226.74657534246577,246.288L229.2123287671233,270.288L231.67808219178082,206.25L234.14383561643834,217.58399999999997L236.60958904109592,227.136L239.07534246575344,233.63400000000001L241.54109589041096,240.882L244.00684931506848,263.076L246.472602739726,257.154L248.93835616438358,190.398L251.4041095890411,198.39L253.86986301369862,280.98L256.33561643835617,227.85000000000002L258.8013698630137,237.86999999999998L261.26712328767127,245.424L263.7328767123288,249.16799999999998L266.1986301369863,254.688L268.66438356164383,137.838L271.13013698630135,239.964L273.59589041095893,254.94L276.06164383561645,232.41L278.527397260274,248.226L280.9931506849315,267.366L283.458904109589,94.40399999999998L285.9246575342466,276.348L288.3904109589041,253.85399999999998L290.85616438356163,178.044L293.32191780821915,240.996L295.7876712328767,263.688L298.25342465753425,231.11400000000003L300.7191780821918,49.28399999999999L303.1849315068493,86.292L305.6506849315068,208.914L308.11643835616434,199.84799999999998L310.5821917808219,256.296L313.04794520547944,170.47200000000004L315.51369863013696,256.302L317.97945205479454,219.96000000000004L320.44520547945206,120.31199999999998L322.91095890410963,241.392L325.37671232876716,196.81799999999998L327.8424657534247,181.044L330.3082191780822,179.04L332.7739726027397,141.58800000000002L335.2397260273973,25.12200000000001L337.7054794520548,93.95400000000001L340.17123287671234,188.91600000000003L342.63698630136986,182.64000000000001L345.1027397260274,169.782L347.56849315068496,157.44600000000003L350.0342465753425,159.444L352.5,238.84199999999998L354.9657534246575,53.17199999999998L357.43150684931504,77.71799999999999L359.8972602739726,142.77L362.36301369863014,137.268L364.82876712328766,168.738L367.2945205479452,143.73L369.7602739726027,6.144000000000016L372.2260273972603,31.578000000000007L374.6917808219178,137.274L377.1575342465753,152.586L379.62328767123284,217.29600000000002L382.08904109589037,181.638L384.55479452054794,207.40200000000002L387.02054794520546,111.11400000000002L389.486301369863,31.48200000000001L391.9520547945205,119.892L394.4178082191781,118.51799999999999L396.8835616438356,113.826L399.3493150684931,179.81400000000002L401.8150684931507,84.432L404.2808219178082,5.087999999999992L406.7465753424658,43.75199999999999L409.2123287671233,136.35600000000002L411.67808219178085,109.38600000000001L414.14383561643837,116.562L416.6095890410959,123.288L419.07534246575347,54.80399999999999L421.541095890411,48.509999999999984L424.0068493150685,76.272L426.472602739726,129.34799999999998L428.93835616438355,106.26599999999999L431.4041095890411,106.05599999999998L433.86986301369865,96.486L436.33561643835617,79.428L438.8013698630137,124.36200000000001L441.2671232876712,85.626L443.7328767123288,123.978L446.1986301369863,114.71400000000001L448.66438356164383,122.088L451.1301369863014,88.90799999999999L453.59589041095893,133.932L456.06164383561645,83.16600000000001L458.527397260274,112.08000000000001L460.9931506849315,179.418L463.458904109589,110.61600000000001L465.92465753424653,127.89L468.39041095890406,82.55399999999999L470.8561643835616,245.004L473.3219178082192,108.92999999999999L475.78767123287673,44.27999999999999L478.25342465753425,110.25000000000001L480.7191780821918,83.14799999999998L483.18493150684935,81.39L485.6506849315069,79.15199999999999L488.1164383561644,105.81600000000002L490.5821917808219,58.62600000000001L493.04794520547944,108.62399999999998L495.51369863013696,146.826L497.9794520547946,108.75599999999999L500.4452054794521,162.57000000000002L502.91095890410963,126.27599999999998L505.37671232876716,118.87799999999999L507.8424657534247,34.90800000000001L510.3082191780822,90.26999999999998L512.7739726027397,133.512L515.2397260273972,110.46L517.7054794520548,88.54199999999999L520.1712328767123,104.91L522.6369863013699,106.25400000000002L525.1027397260274,32.004L527.568493150685,102.36599999999999L530.0342465753425,120.90600000000002L532.5,185.334L534.9657534246576,71.76599999999999L537.431506849315,83.262L539.8972602739726,142.776L542.3630136986301,29.36399999999999L544.8287671232877,56.60999999999999L547.2945205479452,120.70200000000001L549.7602739726028,101.22000000000001L552.2260273972603,130.392L554.6917808219179,139.896L557.1575342465753,73.07400000000001L559.6232876712329,26.916000000000007L562.0890410958904,200.328L564.554794520548,114.11999999999999L567.0205479452054,78.498L569.486301369863,112.44000000000001L571.9520547945206,80.922L574.4178082191781,69.102L576.8835616438356,51.53400000000001L579.3493150684932,68.244L581.8150684931506,117.31200000000001L584.2808219178082,116.16L586.7465753424657,66.912L589.2123287671233,123.20999999999998L591.6780821917807,99.46199999999999L594.1438356164383,107.11200000000001L596.6095890410959,29.195999999999987L599.0753424657535,105.738L601.5410958904109,101.15400000000001L604.0068493150685,124.69200000000001L606.4726027397261,122.328L608.9383561643835,72.438L611.4041095890411,44.80200000000001L613.8698630136986,61.02600000000001L616.3356164383562,66.18L618.8013698630136,97.746L621.2671232876713,86.43L623.7328767123288,174.084L626.1986301369864,49.302000000000014L628.6643835616438,10.338000000000013L631.1301369863014,68.84400000000001L633.5958904109589,102.39599999999999L636.0616438356165,88.452L638.5273972602739,82.00800000000001L640.9931506849315,80.68199999999999L643.458904109589,73.31999999999998L645.9246575342466,45.03600000000001L648.3904109589041,84.60600000000001L650.8561643835617,122.56800000000001L653.3219178082192,90.33000000000001L655.7876712328767,67.068L658.2534246575342,78.41999999999999L660.7191780821918,55.686L663.1849315068492,21.005999999999993L665.6506849315068,65.11800000000001L668.1164383561644,112.42199999999998L670.582191780822,162.81L673.0479452054794,88.554L675.513698630137,76.44600000000001L677.9794520547945,99.40199999999999L680.445205479452,33.04800000000001L682.9109589041095,87.04199999999999L685.3767123287671,118.61399999999999L687.8424657534247,89.91L690.3082191780821,105.32999999999998L692.7739726027397,98.36399999999999L695.2397260273973,82.026L697.7054794520549,36.834L700.1712328767123,105.072L702.6369863013699,269.92199999999997L705.1027397260274,183.696L707.568493150685,85.23600000000002L710.0342465753424,75.876L712.5,237.53400000000002L714.9657534246575,62.046L717.4315068493152,99.672L719.8972602739726,128.57399999999998L722.3630136986302,120.01799999999999L724.8287671232877,100.05600000000001L727.2945205479452,100.284L729.7602739726027,91.43999999999998L732.2260273972603,60.95400000000001L734.6917808219177,151.068L737.1575342465753,190.416L739.6232876712328,122.802L742.0890410958905,159.12L744.554794520548,264.42L747.0205479452055,218.238L749.486301369863,136.146L751.9520547945206,230.844L754.5205479452055,197.424L756.986301369863,167.75999999999996L759.4520547945206,155.022L761.917808219178,126.70200000000001L764.3835616438356,103.068L766.8493150684932,20.099999999999984L769.3150684931508,69.036L771.7808219178082,126.64199999999998L774.2465753424658,101.16000000000001L776.7123287671233,202.15800000000002L779.1780821917808,219.036L781.6438356164383,192.72000000000003L784.1095890410959,106.52399999999999L786.5753424657534,181.53L789.0410958904109,174.522L791.5068493150685,187.18800000000002L793.9726027397261,211.572L796.4383561643835,192.51600000000002L798.9041095890411,142.044L801.3698630136986,104.59199999999998L803.8356164383562,194.166L806.3013698630136,211.542L808.7671232876712,187.01999999999998L811.2328767123288,178.06799999999998L813.6986301369863,232.248L816.1643835616438,173.904L818.6301369863014,173.94L821.0958904109589,177.55199999999996L823.5616438356165,257.844L826.027397260274,192.582L828.4931506849315,207.282L830.9589041095891,191.67000000000002L833.4246575342465,220.65599999999998L835.8904109589041,233.262L838.3561643835616,211.80599999999998L840.8219178082193,218.874L843.2876712328767,220.518L845.7534246575343,228.27L848.2191780821918,192.036L850.6849315068494,171.162L853.1506849315068,174.348L855.6164383561644,149.532L858.0821917808219,252.678L860.5479452054794,210.738L863.0136986301369,251.79600000000002L865.4794520547946,299.676L867.945205479452,265.04400000000004L870.4109589041096,260.724L872.8767123287671,265.896L875.3424657534247,233.604L877.8082191780821,223.28400000000002L880.2739726027397,216.186L882.7397260273972,234.222L885.2054794520548,276.402L887.6712328767122,261.114L890.1369863013699,250.87199999999999L892.6027397260274,219.042L895.068493150685,235.326L897.5342465753424,228.216L900,249.378" stroke="#e45756" stroke-width="2"/></g></g><path class="foreground" aria-hidden="true" d="" display="none"/></g><g transform="translate(0,0)"><path class="background" aria-hidden="true" d="M0,0h900v300h-900Z"/><g><g class="mark-line role-mark marks" role="graphics-object" aria-roledescription="line mark container"><path aria-label="label: MC; Date: Jan 01, 2020; trips: 819" role="graphics-symbol" aria-roledescription="line mark" d="M0,295.086L2.4657534246575343,289.902L4.931506849315069,292.704L7.397260273972602,291.384L9.863013698630137,292.998L12.32876712328767,289.908L14.794520547945204,289.55400000000003L17.26027397260274,290.748L19.726027397260275,291.73199999999997L22.191780821917806,287.7L24.65753424657534,278.106L27.123287671232877,278.90999999999997L29.58904109589041,288.342L32.054794520547944,290.214L34.52054794520548,286.89L36.986301369863014,290.208L39.45205479452055,293.346L41.917808219178085,297.102L44.38356164383561,292.986L46.849315068493155,294.546L49.31506849315068,292.122L51.78082191780822,290.67L54.24657534246575,288.948L56.71232876712329,287.826L59.17808219178082,295.926L61.64383561643835,289.35L64.10958904109589,289.8L66.57534246575342,289.998L69.04109589041096,290.25L71.5068493150685,290.688L73.97260273972603,289.77L76.43835616438356,290.058L78.9041095890411,291.954L81.36986301369863,286.43399999999997L83.83561643835617,287.892L86.30136986301369,289.044L88.76712328767123,293.904L91.23287671232876,293.31600000000003L93.69863013698631,290.89799999999997L96.16438356164385,291.294L98.63013698630137,294.558L101.0958904109589,291.516L103.56164383561644,289.104L106.02739726027397,292.104L108.4931506849315,292.428L110.95890410958903,294.85200000000003L113.42465753424658,292.782L115.89041095890411,288.198L118.35616438356163,290.052L120.82191780821918,288.666L123.2876712328767,290.634L125.75342465753425,292.134L128.21917808219177,287.46000000000004L130.6849315068493,282.66L133.15068493150685,285.918L135.61643835616437,291.144L138.08219178082192,290.142L140.54794520547944,291.78000000000003L143.013698630137,291.33L145.47945205479454,293.208L147.94520547945206,290.29200000000003L150.4109589041096,284.736L152.87671232876713,287.682L155.34246575342468,284.592L157.8082191780822,284.89799999999997L160.27397260273972,292.188L162.73972602739727,287.382L165.2054794520548,281.622L167.56849315068493,277.002L170.03424657534245,280.74L172.5,280.35L174.96575342465755,284.19L177.43150684931507,284.20799999999997L179.89726027397262,278.25L182.36301369863014,282.318L184.8287671232877,290.02799999999996L187.2945205479452,290.742L189.76027397260273,287.298L192.22602739726028,291.906L194.6917808219178,285.348L197.15753424657535,283.392L199.62328767123287,290.118L202.0890410958904,298.926L204.55479452054794,290.19L207.02054794520546,295.704L209.486301369863,289.368L211.95205479452054,285.846L214.41780821917808,297.066L216.88356164383563,296.208L219.34931506849315,294.378L221.8150684931507,294.24L224.28082191780823,290.67L226.74657534246577,291.894L229.2123287671233,296.502L231.67808219178082,281.988L234.14383561643834,285.246L236.60958904109592,287.022L239.07534246575344,287.538L241.54109589041096,290.82599999999996L244.00684931506848,295.194L246.472602739726,293.838L248.93835616438358,279.222L251.4041095890411,281.49600000000004L253.86986301369862,297.07800000000003L256.33561643835617,287.42400000000004L258.8013698630137,289.884L261.26712328767127,292.146L263.7328767123288,292.71L266.1986301369863,293.322L268.66438356164383,269.34000000000003L271.13013698630135,290.69399999999996L273.59589041095893,293.676L276.06164383561645,289.896L278.527397260274,292.428L280.9931506849315,295.416L283.458904109589,259.404L285.9246575342466,296.226L288.3904109589041,293.442L290.85616438356163,278.274L293.32191780821915,291.876L295.7876712328767,294.498L298.25342465753425,289.26599999999996L300.7191780821918,248.226L303.1849315068493,257.076L305.6506849315068,284.904L308.11643835616434,282.86400000000003L310.5821917808219,293.394L313.04794520547944,275.87399999999997L315.51369863013696,293.31600000000003L317.97945205479454,287.286L320.44520547945206,264.216L322.91095890410963,290.916L325.37671232876716,283.32L327.8424657534247,279.45L330.3082191780822,278.55L332.7739726027397,270.47999999999996L335.2397260273973,244.56L337.7054794520548,257.142L340.17123287671234,282.282L342.63698630136986,280.488L345.1027397260274,277.494L347.56849315068496,274.302L350.0342465753425,274.746L352.5,289.95L354.9657534246575,250.52999999999997L357.43150684931504,254.97L359.8972602739726,271.44599999999997L362.36301369863014,271.404L364.82876712328766,278.586L367.2945205479452,274.26L369.7602739726027,244.43400000000003L372.2260273972603,249.13200000000003L374.6917808219178,275.232L377.1575342465753,279.50399999999996L379.62328767123284,286.986L382.08904109589037,279.984L384.55479452054794,285.534L387.02054794520546,267.39L389.486301369863,248.082L391.9520547945205,268.56600000000003L394.4178082191781,268.47L396.8835616438356,268.308L399.3493150684931,280.48199999999997L401.8150684931507,260.49L404.2808219178082,242.64L406.7465753424658,248.352L409.2123287671233,270.618L411.67808219178085,268.176L414.14383561643837,268.31399999999996L416.6095890410959,268.938L419.07534246575347,259.11L421.541095890411,250.134L424.0068493150685,255L426.472602739726,272.26800000000003L428.93835616438355,267.576L431.4041095890411,268.512L433.86986301369865,266.892L436.33561643835617,264.414L438.8013698630137,268.782L441.2671232876712,260.86199999999997L443.7328767123288,272.958L446.1986301369863,271.338L448.66438356164383,272.36400000000003L451.1301369863014,264.894L453.59589041095893,270.51L456.06164383561645,257.664L458.527397260274,262.608L460.9931506849315,280.728L463.458904109589,270.96L465.92465753424653,272.49L468.39041095890406,265.296L470.8561643835616,291.534L473.3219178082192,265.452L475.78767123287673,252.042L478.25342465753425,268.74L480.7191780821918,264.846L483.18493150684935,264.312L485.6506849315069,265.00800000000004L488.1164383561644,269.544L490.5821917808219,256.722L493.04794520547944,264.894L495.51369863013696,276.834L497.9794520547946,269.394L500.4452054794521,279.45L502.91095890410963,272.484L505.37671232876716,271.338L507.8424657534247,251.88L510.3082191780822,262.524L512.7739726027397,275.172L515.2397260273972,270.234L517.7054794520548,266.328L520.1712328767123,269.328L522.6369863013699,268.44599999999997L525.1027397260274,251.39999999999998L527.568493150685,265.224L530.0342465753425,271.44L532.5,281.82L534.9657534246576,262.752L537.431506849315,264.594L539.8972602739726,274.10400000000004L542.3630136986301,250.674L544.8287671232877,256.02L547.2945205479452,269.826L549.7602739726028,266.592L552.2260273972603,272.514L554.6917808219179,273.93L557.1575342465753,260.91L559.6232876712329,248.628L562.0890410958904,284.85L564.554794520548,270.00600000000003L567.0205479452054,262.35L569.486301369863,270.732L571.9520547945206,263.61L574.4178082191781,261.12L576.8835616438356,253.356L579.3493150684932,258.474L581.8150684931506,270.33L584.2808219178082,271.098L586.7465753424657,262.014L589.2123287671233,271.962L591.6780821917807,266.14799999999997L594.1438356164383,267.384L596.6095890410959,248.7L599.0753424657535,268.584L601.5410958904109,268.53000000000003L604.0068493150685,272.34L606.4726027397261,271.146L608.9383561643835,261.156L611.4041095890411,253.014L613.8698630136986,257.778L616.3356164383562,259.302L618.8013698630136,266.49L621.2671232876713,266.436L623.7328767123288,281.87399999999997L626.1986301369864,259.56L628.6643835616438,246.36L631.1301369863014,257.178L633.5958904109589,268.572L636.0616438356165,267.606L638.5273972602739,264.68399999999997L640.9931506849315,265.668L643.458904109589,263.844L645.9246575342466,255.324L648.3904109589041,261.744L650.8561643835617,272.7L653.3219178082192,267.798L655.7876712328767,263.856L658.2534246575342,264.93L660.7191780821918,262.836L663.1849315068492,252.98999999999998L665.6506849315068,258.318L668.1164383561644,268.218L670.582191780822,278.598L673.0479452054794,267.162L675.513698630137,264.51L677.9794520547945,268.326L680.445205479452,252.972L682.9109589041095,260.58L685.3767123287671,270.47999999999996L687.8424657534247,266.898L690.3082191780821,269.154L692.7739726027397,266.52L695.2397260273973,265.176L697.7054794520549,253.5L700.1712328767123,264.678L702.6369863013699,295.116L705.1027397260274,282.59999999999997L707.568493150685,265.758L710.0342465753424,263.076L712.5,289.99199999999996L714.9657534246575,258.534L717.4315068493152,263.514L719.8972602739726,271.53000000000003L722.3630136986302,270.834L724.8287671232877,268.404L727.2945205479452,268.146L729.7602739726027,266.898L732.2260273972603,257.976L734.6917808219177,274.062L737.1575342465753,283.194L739.6232876712328,272.538L742.0890410958905,278.55L744.554794520548,294.45L747.0205479452055,287.322L749.486301369863,273.06L751.9520547945206,288.33L754.5205479452055,284.79L756.986301369863,279.384L759.4520547945206,275.652L761.917808219178,271.458L764.3835616438356,268.41L766.8493150684932,249.618L769.3150684931508,255.912L771.7808219178082,270.234L774.2465753424658,267.91200000000003L776.7123287671233,284.514L779.1780821917808,287.61L781.6438356164383,283.944L784.1095890410959,266.68199999999996L786.5753424657534,280.392L789.0410958904109,279.948L791.5068493150685,283.146L793.9726027397261,286.698L796.4383561643835,284.124L798.9041095890411,276.06L801.3698630136986,265.002L803.8356164383562,282.24L806.3013698630136,286.392L808.7671232876712,283.608L811.2328767123288,281.238L813.6986301369863,287.412L816.1643835616438,278.214L818.6301369863014,277.272L821.0958904109589,277.392L823.5616438356165,293.19L826.027397260274,283.542L828.4931506849315,285.88800000000003L830.9589041095891,283.044L833.4246575342465,287.202L835.8904109589041,289.89L838.3561643835616,285.156L840.8219178082193,287.094L843.2876712328767,287.80199999999996L845.7534246575343,289.638L848.2191780821918,283.914L850.6849315068494,279.61199999999997L853.1506849315068,280.986L855.6164383561644,273.132L858.0821917808219,292.57800000000003L860.5479452054794,287.142L863.0136986301369,293.088L865.4794520547946,299.92199999999997L867.945205479452,295.794L870.4109589041096,294.87L872.8767123287671,295.092L875.3424657534247,290.964L877.8082191780821,289.242L880.2739726027397,287.988L882.7397260273972,290.574L885.2054794520548,296.02799999999996L887.6712328767122,293.802L890.1369863013699,291.468L892.6027397260274,286.77L895.068493150685,289.53L897.5342465753424,289.386L900,291.81600000000003" stroke="#4c78a8" stroke-width="2"/></g></g><path class="foreground" aria-hidden="true" d="" display="none"/></g></g><g class="mark-group role-legend" role="graphics-symbol" aria-roledescription="legend" aria-label="Symbol legend titled 'label' for stroke color with 3 values: MC, MI, MS"><g transform="translate(920,0)"><path class="background" aria-hidden="true" d="M0,0h32v53h-32Z" pointer-events="none"/><g><g class="mark-group role-legend-entry"><g transform="translate(0,16)"><path class="background" aria-hidden="true" d="M0,0h0v0h0Z" pointer-events="none"/><g><g class="mark-group role-scope" role="graphics-object" aria-roledescription="group mark container"><g transform="translate(0,0)"><path class="background" aria-hidden="true" d="M0,0h31.5517578125v11h-31.5517578125Z" pointer-events="none" opacity="1"/><g><g class="mark-symbol role-legend-symbol" pointer-events="none"><path transform="translate(6,6)" d="M-5,0L5,0" stroke="#4c78a8" stroke-width="1.5" opacity="1"/></g><g class="mark-text role-legend-label" pointer-events="none"><text text-anchor="start" transform="translate(16,9)" font-family="sans-serif" font-size="10px" fill="#000" opacity="1">MC</text></g></g><path class="foreground" aria-hidden="true" d="" pointer-events="none" display="none"/></g><g transform="translate(0,13)"><path class="background" aria-hidden="true" d="M0,0h31.5517578125v11h-31.5517578125Z" pointer-events="none" opacity="1"/><g><g class="mark-symbol role-legend-symbol" pointer-events="none"><path transform="translate(6,6)" d="M-5,0L5,0" stroke="#f58518" stroke-width="1.5" opacity="1"/></g><g class="mark-text role-legend-label" pointer-events="none"><text text-anchor="start" transform="translate(16,9)" font-family="sans-serif" font-size="10px" fill="#000" opacity="1">MI</text></g></g><path class="foreground" aria-hidden="true" d="" pointer-events="none" display="none"/></g><g transform="translate(0,26)"><path class="background" aria-hidden="true" d="M0,0h31.5517578125v11h-31.5517578125Z" pointer-events="none" opacity="1"/><g><g class="mark-symbol role-legend-symbol" pointer-events="none"><path transform="translate(6,6)" d="M-5,0L5,0" stroke="#e45756" stroke-width="1.5" opacity="1"/></g><g class="mark-text role-legend-label" pointer-events="none"><text text-anchor="start" transform="translate(16,9)" font-family="sans-serif" font-size="10px" fill="#000" opacity="1">MS</text></g></g><path class="foreground" aria-hidden="true" d="" pointer-events="none" display="none"/></g></g></g><path class="foreground" aria-hidden="true" d="" pointer-events="none" display="none"/></g></g><g class="mark-text role-legend-title" pointer-events="none"><text text-anchor="start" transform="translate(0,9)" font-family="sans-serif" font-size="11px" font-weight="bold" fill="#000" opacity="1">label</text></g></g><path class="foreground" aria-hidden="true" d="" pointer-events="none" display="none"/></g></g></g><path class="foreground" aria-hidden="true" d="" display="none"/></g></g></g></svg>