<svg xmlns="http://www.w3.org/2000/svg" xmlns:xlink="http://www.w3.org/1999/xlink" version="1.1" class="marks" width="1015" height="347" viewBox="0 0 1015 347"><rect width="1015" height="347" fill="white"/><g fill="none" stroke-miterlimit="10" transform="translate(58,10)"><g class="mark-group role-frame root" role="graphics-object" aria-roledescription="group mark container"><g transform="translate(0,0)"><path class="background" aria-hidden="true" d="M0.5,0.5h900v300h-900Z" stroke="#ddd"/><g><g class="mark-group role-axis" aria-hidden="true"><g transform="translate(0.5,300.5)"><path class="background" aria-hidden="true" d="M0,0h0v0h0Z" pointer-events="none"/><g><g class="mark-rule role-axis-grid" pointer-events="none"><line transform="translate(0,-300)" x2="0" y2="300" stroke="#ddd" stroke-width="1" opacity="1"/><line transform="translate(77,-300)" x2="0" y2="300" stroke="#ddd" stroke-width="1" opacity="1"/><line transform="translate(146,-300)" x2="0" y2="300" stroke="#ddd" stroke-width="1" opacity="1"/><line transform="translate(222,-300)" x2="0" y2="300" stroke="#ddd" stroke-width="1" opacity="1"/><line transform="translate(297,-300)" x2="0" y2="300" stroke="#ddd" stroke-width="1" opacity="1"/><line transform="translate(373,-300)" x2="0" y2="300" stroke="#ddd" stroke-width="1" opacity="1"/><line transform="translate(447,-300)" x2="0" y2="300" stroke="#ddd" stroke-width="1" opacity="1"/><line transform="translate(524,-300)" x2="0" y2="300" stroke="#ddd" stroke-width="1" opacity="1"/><line transform="translate(601,-300)" x2="0" y2="300" stroke="#ddd" stroke-width="1" opacity="1"/><line transform="translate(675,-300)" x2="0" y2="300" stroke="#ddd" stroke-width="1" opacity="1"/><line transform="translate(752,-300)" x2="0" y2="300" stroke="#ddd" stroke-width="1" opacity="1"/><line transform="translate(826,-300)" x2="0" y2="300" stroke="#ddd" stroke-width="1" opacity="1"/></g></g><path class="foreground" aria-hidden="true" d="" pointer-events="none" display="none"/></g></g><g class="mark-group role-axis" aria-hidden="true"><g transform="translate(0.5,0.5)"><path class="background" aria-hidden="true" d="M0,0h0v0h0Z" pointer-events="none"/><g><g class="mark-rule role-axis-grid" pointer-events="none"><line transform="translate(0,300)" x2="900" y2="0" stroke="#ddd" stroke-width="1" opacity="1"/><line transform="translate(0,273)" x2="900" y2="0" stroke="#ddd" stroke-width="1" opacity="1"/><line transform="translate(0,245)" x2="900" y2="0" stroke="#ddd" stroke-width="1" opacity="1"/><line transform="translate(0,218)" x2="900" y2="0" stroke="#ddd" stroke-width="1" opacity="1"/><line transform="translate(0,191)" x2="900" y2="0" stroke="#ddd" stroke-width="1" opacity="1"/><line transform="translate(0,164)" x2="900" y2="0" stroke="#ddd" stroke-width="1" opacity="1"/><line transform="translate(0,136)" x2="900" y2="0" stroke="#ddd" stroke-width="1" opacity="1"/><line transform="translate(0,109)" x2="900" y2="0" stroke="#ddd" stroke-width="1" opacity="1"/><line transform="translate(0,82)" x2="900" y2="0" stroke="#ddd" stroke-width="1" opacity="1"/><line transform="translate(0,55)" x2="900" y2="0" stroke="#ddd" stroke-width="1" opacity="1"/><line transform="translate(0,27)" x2="900" y2="0" stroke="#ddd" stroke-width="1" opacity="1"/><line transform="translate(0,0)" x2="900" y2="0" stroke="#ddd" stroke-width="1" opacity="1"/></g></g><path class="foreground" aria-hidden="true" d="" pointer-events="none" display="none"/></g></g><g class="mark-group role-axis" role="graphics-symbol" aria-roledescription="axis" aria-label="X-axis titled 'Date' for a time scale with values from Tuesday, 01 January 2019, 12:00:00 AM to Tuesday, 31 December 2019, 12:00:00 AM"><g transform="translate(0.5,300.5)"><path class="background" aria-hidden="true" d="M0,0h0v0h0Z" pointer-events="none"/><g><g class="mark-rule role-axis-tick" pointer-events="none"><line transform="translate(0,0)" x2="0" y2="5" stroke="#888" stroke-width="1" opacity="1"/><line transform="translate(77,0)" x2="0" y2="5" stroke="#888" stroke-width="1" opacity="1"/><line transform="translate(146,0)" x2="0" y2="5" stroke="#888" stroke-width="1" opacity="1"/><line transform="translate(222,0)" x2="0" y2="5" stroke="#888" stroke-width="1" opacity="1"/><line transform="translate(297,0)" x2="0" y2="5" stroke="#888" stroke-width="1" opacity="1"/><line transform="translate(373,0)" x2="0" y2="5" stroke="#888" stroke-width="1" opacity="1"/><line transform="translate(447,0)" x2="0" y2="5" stroke="#888" stroke-width="1" opacity="1"/><line transform="translate(524,0)" x2="0" y2="5" stroke="#888" stroke-width="1" opacity="1"/><line transform="translate(601,0)" x2="0" y2="5" stroke="#888" stroke-width="1" opacity="1"/><line transform="translate(675,0)" x2="0" y2="5" stroke="#888" stroke-width="1" opacity="1"/><line transform="translate(752,0)" x2="0" y2="5" stroke="#888" stroke-width="1" opacity="1"/><line transform="translate(826,0)" x2="0" y2="5" stroke="#888" stroke-width="1" opacity="1"/></g><g class="mark-text role-axis-label" pointer-events="none"><text text-anchor="start" transform="translate(0,15)" font-family="sans-serif" font-size="10px" fill="#000" opacity="1">2019</text><text text-anchor="middle" transform="translate(76.64835164835165,15)" font-family="sans-serif" font-size="10px" fill="#000" opacity="1">February</text><text text-anchor="middle" transform="translate(145.87912087912088,15)" font-family="sans-serif" font-size="10px" fill="#000" opacity="1">March</text><text text-anchor="middle" transform="translate(222.42445054945057,15)" font-family="sans-serif" font-size="10px" fill="#000" opacity="1">April</text><text text-anchor="middle" transform="translate(296.60027472527474,15)" font-family="sans-serif" font-size="10px" fill="#000" opacity="1">May</text><text text-anchor="middle" transform="translate(373.2486263736264,15)" font-family="sans-serif" font-size="10px" fill="#000" opacity="1">June</text><text text-anchor="middle" transform="translate(447.42445054945057,15)" font-family="sans-serif" font-size="10px" fill="#000" opacity="1">July</text><text text-anchor="middle" transform="translate(524.0728021978023,15)" font-family="sans-serif" font-size="10px" fill="#000" opacity="1">August</text><text text-anchor="middle" transform="translate(600.7211538461538,15)" font-family="sans-serif" font-size="10px" fill="#000" opacity="1">September</text><text text-anchor="middle" transform="translate(674.896978021978,15)" font-family="sans-serif" font-size="10px" fill="#000" opacity="1">October</text><text text-anchor="middle" transform="translate(751.5453296703297,15)" font-family="sans-serif" font-size="10px" fill="#000" opacity="1">November</text><text text-anchor="middle" transform="translate(825.8241758241758,15)" font-family="sans-serif" font-size="10px" fill="#000" opacity="1">December</text></g><g class="mark-rule role-axis-domain" pointer-events="none"><line transform="translate(0,0)" x2="900" y2="0" stroke="#888" stroke-width="1" opacity="1"/></g><g class="mark-text role-axis-title" pointer-events="none"><text text-anchor="middle" transform="translate(450,30)" font-family="sans-serif" font-size="11px" font-weight="bold" fill="#000" opacity="1">Date</text></g></g><path class="foreground" aria-hidden="true" d="" pointer-events="none" display="none"/></g></g><g class="mark-group role-axis" role="graphics-symbol" aria-roledescription="axis" aria-label="Y-axis titled 'trips' for a linear scale with values from 0 to 55,000"><g transform="translate(0.5,0.5)"><path class="background" aria-hidden="true" d="M0,0h0v0h0Z" pointer-events="none"/><g><g class="mark-rule role-axis-tick" pointer-events="none"><line transform="translate(0,300)" x2="-5" y2="0" stroke="#888" stroke-width="1" opacity="1"/><line transform="translate(0,273)" x2="-5" y2="0" stroke="#888" stroke-width="1" opacity="1"/><line transform="translate(0,245)" x2="-5" y2="0" stroke="#888" stroke-width="1" opacity="1"/><line transform="translate(0,218)" x2="-5" y2="0" stroke="#888" stroke-width="1" opacity="1"/><line transform="translate(0,191)" x2="-5" y2="0" stroke="#888" stroke-width="1" opacity="1"/><line transform="translate(0,164)" x2="-5" y2="0" stroke="#888" stroke-width="1" opacity="1"/><line transform="translate(0,136)" x2="-5" y2="0" stroke="#888" stroke-width="1" opacity="1"/><line transform="translate(0,109)" x2="-5" y2="0" stroke="#888" stroke-width="1" opacity="1"/><line transform="translate(0,82)" x2="-5" y2="0" stroke="#888" stroke-width="1" opacity="1"/><line transform="translate(0,55)" x2="-5" y2="0" stroke="#888" stroke-width="1" opacity="1"/><line transform="translate(0,27)" x2="-5" y2="0" stroke="#888" stroke-width="1" opacity="1"/><line transform="translate(0,0)" x2="-5" y2="0" stroke="#888" stroke-width="1" opacity="1"/></g><g class="mark-text role-axis-label" pointer-events="none"><text text-anchor="end" transform="translate(-7,303)" font-family="sans-serif" font-size="10px" fill="#000" opacity="1">0</text><text text-anchor="end" transform="translate(-7,275.7272727272727)" font-family="sans-serif" font-size="10px" fill="#000" opacity="1">5,000</text><text text-anchor="end" transform="translate(-7,248.45454545454544)" font-family="sans-serif" font-size="10px" fill="#000" opacity="1">10,000</text><text text-anchor="end" transform="translate(-7,221.1818181818182)" font-family="sans-serif" font-size="10px" fill="#000" opacity="1">15,000</text><text text-anchor="end" transform="translate(-7,193.9090909090909)" font-family="sans-serif" font-size="10px" fill="#000" opacity="1">20,000</text><text text-anchor="end" transform="translate(-7,166.63636363636363)" font-family="sans-serif" font-size="10px" fill="#000" opacity="1">25,000</text><text text-anchor="end" transform="translate(-7,139.36363636363637)" font-family="sans-serif" font-size="10px" fill="#000" opacity="1">30,000</text><text text-anchor="end" transform="translate(-7,112.0909090909091)" font-family="sans-serif" font-size="10px" fill="#000" opacity="1">35,000</text><text text-anchor="end" transform="translate(-7,84.81818181818181)" font-family="sans-serif" font-size="10px" fill="#000" opacity="1">40,000</text><text text-anchor="end" transform="translate(-7,57.54545454545453)" font-family="sans-serif" font-size="10px" fill="#000" opacity="1">45,000</text><text text-anchor="end" transform="translate(-7,30.27272727272728)" font-family="sans-serif" font-size="10px" fill="#000" opacity="1">50,000</text><text text-anchor="end" transform="translate(-7,3)" font-family="sans-serif" font-size="10px" fill="#000" opacity="1">55,000</text></g><g class="mark-rule role-axis-domain" pointer-events="none"><line transform="translate(0,300)" x2="0" y2="-300" stroke="#888" stroke-width="1" opacity="1"/></g><g class="mark-text role-axis-title" pointer-events="none"><text text-anchor="middle" transform="translate(-41.5859375,150) rotate(-90) translate(0,-2)" font-family="sans-serif" font-size="11px" font-weight="bold" fill="#000" opacity="1">trips</text></g></g><path class="foreground" aria-hidden="true" d="" pointer-events="none" display="none"/></g></g><g class="mark-group role-scope pathgroup" role="graphics-object" aria-roledescription="group mark container"><g transform="translate(0,0)"><path class="background" aria-hidden="true" d="M0,0h900v300h-900Z"/><g><g class="mark-line role-mark marks" role="graphics-object" aria-roledescription="line mark container"><path aria-label="label: MI; Date: Jan 01, 2019; trips: 9815" role="graphics-symbol" aria-roledescription="line mark" d="M0,246.46363636363637L2.4725274725274726,187.9090909090909L4.945054945054945,171.89454545454547L7.417582417582418,166.01454545454547L9.89010989010989,242.98363636363635L12.362637362637363,208.61454545454544L14.835164835164836,183.1909090909091L17.30769230769231,171.74181818181816L19.78021978021978,160.4618181818182L22.252747252747252,172.94181818181818L24.725274725274726,190.7672727272727L27.197802197802197,218.88545454545454L29.67032967032967,226.6909090909091L32.14285714285714,185.4490909090909L34.61538461538462,173.78181818181818L37.08791208791209,170.1818181818182L39.56043956043956,172.32L42.032967032967036,189.56727272727272L44.505494505494504,226.1509090909091L46.97802197802198,252.45272727272726L49.45054945054945,262.40181818181816L51.92307692307693,204.1472727272727L54.395604395604394,168.25636363636366L56.86813186813187,234.43090909090907L59.34065934065934,175.04181818181817L61.81318681318682,217.98545454545456L64.28571428571428,212.7109090909091L66.75824175824175,184.0909090909091L69.23076923076924,197.95090909090908L71.7032967032967,214.5981818181818L74.17582417582418,233.42181818181817L76.64835164835165,213.34909090909093L79.12087912087912,229.0909090909091L81.59340659340658,209.10545454545453L84.06593406593407,163.82181818181817L86.53846153846155,144.84545454545454L89.01098901098901,175.7072727272727L91.48351648351648,166.1290909090909L93.95604395604396,185.39454545454547L96.42857142857142,224.18727272727273L98.9010989010989,224.06727272727272L101.37362637362638,175.6909090909091L103.84615384615385,248.00727272727275L106.31868131868131,186.85636363636362L108.79120879120879,171.10363636363635L111.26373626373626,162.16363636363636L113.73626373626374,214.11272727272726L116.20879120879123,230.77090909090907L118.68131868131869,217.6909090909091L121.15384615384615,187.63636363636365L123.62637362637363,233.24727272727273L126.0989010989011,181.74545454545455L128.57142857142856,170.22L131.04395604395606,206.55272727272728L133.5164835164835,225.50727272727272L135.98901098901098,187.66363636363639L138.46153846153848,178.39636363636362L140.93406593406593,177.54L143.4065934065934,175.28727272727272L145.87912087912088,201.34909090909093L148.35164835164835,245.82545454545453L150.82417582417582,229.80545454545455L153.2967032967033,206.14909090909092L155.76923076923077,177.5509090909091L158.24175824175825,186.98727272727274L160.71428571428572,178.53272727272727L163.18681318681317,169.44545454545457L165.65934065934067,196.62L168.13186813186815,241.09090909090912L170.5013736263736,144.18L172.9739010989011,150.01636363636365L175.44642857142858,141.9L177.91895604395603,127.29272727272726L180.39148351648353,140.35636363636362L182.86401098901098,188.68363636363634L185.33653846153845,199.5L187.80906593406593,156.42L190.2815934065934,138.68727272727273L192.75412087912088,134.3181818181818L195.22664835164835,225.56181818181818L197.69917582417582,187.11272727272728L200.1717032967033,195.27818181818185L202.64423076923077,182.39454545454547L205.11675824175825,136.5218181818182L207.58928571428572,130.34181818181818L210.0618131868132,130.74545454545452L212.53434065934064,123.21272727272728L215.00686813186815,125.46000000000001L217.47939560439562,158.59636363636363L219.95192307692307,203.66181818181818L222.42445054945057,139.14545454545453L224.89697802197801,119.22L227.3695054945055,106.21636363636362L229.84203296703296,107.37818181818183L232.31456043956047,186.6818181818182L234.78708791208794,161.8309090909091L237.2596153846154,159.73090909090908L239.73214285714286,113.08909090909091L242.2046703296703,115.4781818181818L244.67719780219778,96.59454545454544L247.14972527472528,109.74545454545455L249.62225274725276,131.55818181818182L252.09478021978023,157.10727272727271L254.56730769230768,168.95999999999998L257.03983516483515,165.12545454545455L259.5123626373626,126.56727272727272L261.9848901098901,120.45818181818181L264.4574175824176,125.19272727272728L266.92994505494505,138.6L269.4024725274725,208.21636363636364L271.875,192.3490909090909L274.3475274725275,174.85090909090908L276.82005494505495,115.25454545454545L279.2925824175824,109.46727272727271L281.7651098901099,131.85818181818183L284.2376373626374,186.65454545454546L286.7101648351648,170.65090909090907L289.1826923076923,185.69454545454545L291.6552197802198,129.96545454545455L294.12774725274727,120.26181818181819L296.60027472527474,120.95454545454545L299.07280219780216,113.82L301.54532967032964,123.32727272727271L304.01785714285717,173.28L306.49038461538464,249.63272727272727L308.9629120879121,116.7818181818182L311.43543956043953,108.14727272727272L313.907967032967,98.83090909090909L316.3804945054945,111.33272727272728L318.853021978022,118.40181818181819L321.32554945054943,160.82181818181817L323.7980769230769,265.6472727272727L326.2706043956044,225.65454545454546L328.74313186813185,166.24363636363634L331.2156593406594,106.96363636363635L333.6881868131868,103.02000000000001L336.1607142857143,115.7781818181818L338.63324175824175,155.19818181818184L341.1057692307692,160.93090909090907L343.5782967032967,112.4509090909091L346.0508241758242,96.12L348.52335164835165,90.00545454545455L350.9958791208791,144.87272727272727L353.4684065934066,121.54909090909092L355.9409340659341,188.4818181818182L358.4134615384615,206.84727272727275L360.885989010989,180.0709090909091L363.3585164835165,134.68363636363637L365.83104395604397,143.79272727272726L368.30357142857144,150.81272727272727L370.77609890109886,101.74363636363636L373.2486263736264,145.30363636363634L375.72115384615387,160.88727272727274L378.19368131868134,107.02909090909091L380.66620879120876,90.82363636363637L383.13873626373623,93.22363636363636L385.6112637362637,93.19636363636363L388.08379120879124,96.3709090909091L390.5563186813187,150.88909090909092L393.02884615384613,155.59636363636363L395.5013736263736,187.15636363636364L397.9739010989011,101.13818181818182L400.44642857142856,84.97090909090909L402.9189560439561,162.83454545454546L405.3914835164835,99.29999999999998L407.864010989011,153.62727272727275L410.33653846153845,172.62L412.8090659340659,108.24000000000001L415.2815934065934,189.04363636363638L417.7541208791209,118.94727272727273L420.22664835164835,133.29272727272726L422.6991758241758,133.59272727272727L425.1717032967033,149.82L427.6442307692308,151.0309090909091L430.11675824175825,97.41818181818182L432.5892857142857,122.96181818181819L435.0618131868132,88.44545454545457L437.53434065934067,94.03636363636363L440.00686813186815,102.23454545454545L442.47939560439556,159.70909090909092L444.9519230769231,175.61999999999998L447.42445054945057,105.64363636363636L449.89697802197804,95.75454545454546L452.36950549450546,111.56181818181817L454.84203296703294,197.32363636363635L457.3145604395604,167.4109090909091L459.7870879120879,189.6218181818182L462.25961538461536,168.90545454545455L464.7321428571429,122.50363636363637L467.20467032967036,86.34545454545456L469.67719780219784,83.36727272727272L472.1497252747253,146.15454545454546L474.6222527472528,97.92545454545454L477.0947802197802,147.3L479.5673076923077,155.22545454545454L482.03983516483515,96.19090909090909L484.5123626373626,80.79272727272728L486.9848901098901,108.44727272727272L489.4574175824175,126.64909090909092L491.929945054945,103.06909090909092L494.4024725274726,175.3309090909091L496.87500000000006,177.99818181818182L499.3475274725275,151.23272727272726L501.82005494505495,115.6690909090909L504.2925824175824,78.91090909090909L506.7651098901099,80.88545454545456L509.2376373626374,93.8618181818182L511.7101648351648,148.74545454545455L514.1826923076923,151.6909090909091L516.6552197802198,94.58727272727272L519.1277472527472,84.51818181818182L521.6002747252747,115.2272727272727L524.0728021978023,67.23818181818181L526.5453296703297,90.61636363636364L529.0178571428571,146.74363636363637L531.4903846153846,156.99272727272728L533.9629120879121,93.21818181818182L536.4354395604396,87.61090909090909L538.907967032967,149.67272727272726L541.3804945054944,96.39818181818181L543.853021978022,100.7890909090909L546.3255494505494,145.63090909090909L548.798076923077,152.00181818181818L551.2706043956044,97.08L553.7431318681319,97.94727272727272L556.2156593406594,99.44181818181818L558.6881868131868,84.51272727272728L561.1607142857143,95.25818181818182L563.6332417582418,152.6781818181818L566.1057692307692,172.66909090909093L568.5782967032967,106.33636363636364L571.0508241758241,86.20909090909092L573.5233516483516,101.18727272727273L575.9958791208791,103.99090909090908L578.4684065934066,134.07272727272726L580.9409340659341,153.07636363636365L583.4134615384615,154.6090909090909L585.8859890109891,100.51090909090911L588.3585164835165,85.11818181818181L590.8310439560439,117.08181818181819L593.3035714285714,87.06545454545454L595.7760989010989,110.73818181818183L598.2486263736264,174.2290909090909L600.7211538461538,181.89818181818183L603.1936813186812,202.95818181818183L605.6662087912089,86.56363636363636L608.1387362637363,75.34363636363636L610.6112637362637,63.55636363636362L613.0837912087912,139.0472727272727L615.5563186813187,136.7618181818182L618.0288461538462,139.68L620.5013736263736,81.99818181818182L622.9739010989011,68.9890909090909L625.4464285714286,65.28L627.918956043956,101.03454545454545L630.3914835164835,74.5909090909091L632.864010989011,133.65818181818184L635.3365384615385,135.70909090909092L637.809065934066,82.95272727272727L640.2815934065934,57.3490909090909L642.7541208791209,61.980000000000004L645.2266483516484,61.19454545454545L647.6991758241758,75.82363636363635L650.1717032967033,116.36727272727272L652.6442307692307,139.02L655.1167582417582,80.61272727272727L657.5892857142857,56.49272727272726L660.0618131868132,55.58727272727272L662.5343406593407,71.43818181818182L665.0068681318681,61.985454545454544L667.4793956043957,130.26545454545456L669.9519230769231,138.32727272727274L672.4244505494505,93.21272727272728L674.896978021978,68.49818181818182L677.3695054945055,81.36L679.842032967033,177.53454545454545L682.3145604395604,77.07272727272726L684.7870879120878,139.7618181818182L687.2596153846154,155.35090909090908L689.7321428571429,91.85454545454547L692.2046703296704,72.63272727272728L694.6771978021978,144.33818181818182L697.1497252747253,65.72727272727273L699.6222527472528,80.71636363636362L702.0947802197802,145.8709090909091L704.5673076923077,154.72909090909093L707.0398351648352,102.1309090909091L709.5123626373626,72.8181818181818L711.9848901098901,169.40181818181816L714.4574175824175,106.21636363636362L716.929945054945,91.95272727272729L719.4024725274726,147.0818181818182L721.875,219.87272727272727L724.3475274725275,92.00727272727273L726.820054945055,136.09636363636363L729.2925824175825,85.36363636363636L731.7651098901099,76.07454545454544L734.2376373626373,82.95272727272727L736.7101648351648,142.45636363636362L739.1826923076923,225.36545454545453L741.6552197802198,90.2018181818182L744.1277472527472,137.63454545454545L746.6002747252747,102.2618181818182L749.0728021978023,157.50545454545454L751.5453296703297,104.94L754.0178571428571,160.36363636363637L756.4903846153846,168.79090909090908L759.065934065934,101.83090909090909L761.5384615384615,86.70000000000002L764.010989010989,90.83999999999999L766.4835164835165,128.84727272727275L768.9560439560439,143.2090909090909L771.4285714285713,190.79454545454547L773.901098901099,185.72181818181818L776.3736263736264,123.86727272727272L778.8461538461539,171.01636363636365L781.3186813186813,159.13636363636365L783.7912087912088,130.4509090909091L786.2637362637363,124.68545454545453L788.7362637362637,192.0327272727273L791.2087912087912,202.77272727272728L793.6813186813187,187.83818181818182L796.1538461538461,127.42363636363636L798.6263736263736,124.27090909090909L801.098901098901,113.73818181818183L803.5714285714287,143.51454545454544L806.0439560439561,187.51636363636365L808.5164835164835,240.46363636363637L810.989010989011,126.91636363636364L813.4615384615385,116.8909090909091L815.934065934066,150.0981818181818L818.4065934065934,253.93636363636364L820.8791208791208,229.32545454545456L823.3516483516484,223.9581818181818L825.8241758241758,264.12L828.2967032967033,240.8290909090909L830.7692307692308,175.7290909090909L833.2417582417582,152.03999999999996L835.7142857142858,147.2181818181818L838.1868131868132,140.7709090909091L840.6593406593406,195.96545454545455L843.1318681318681,202.26000000000002L845.6043956043956,248.08363636363637L848.0769230769231,168.04363636363635L850.5494505494505,175.71272727272728L853.021978021978,154.89818181818183L855.4945054945055,195.84L857.967032967033,209.36727272727273L860.4395604395605,196.48909090909092L862.9120879120879,166.88727272727274L865.3846153846154,234.96545454545455L867.8571428571429,177.15272727272725L870.3296703296703,200.2581818181818L872.8021978021978,187.78363636363636L875.2747252747253,222.59454545454545L877.7472527472527,228.67090909090908L880.2197802197802,187.40727272727273L882.6923076923076,218.36727272727273L885.1648351648352,269.2254545454545L887.6373626373627,224.06727272727272L890.1098901098901,206.83636363636364L892.5824175824176,225.78545454545457L895.054945054945,248.4490909090909L897.5274725274726,259.40181818181816L900,206.96181818181816" stroke="#f58518" stroke-width="2"/></g></g><path class="foreground" aria-hidden="true" d="" display="none"/></g><g transform="translate(0,0)"><path class="background" aria-hidden="true" d="M0,0h900v300h-900Z"/><g><g class="mark-line role-mark marks" role="graphics-object" aria-roledescription="line mark container"><path aria-label="label: MS; Date: Jan 01, 2019; trips: 9811" role="graphics-symbol" aria-roledescription="line mark" d="M0,246.48545454545453L2.4725274725274726,217.9309090909091L4.945054945054945,212.82545454545456L7.417582417582418,207.45272727272726L9.89010989010989,268.07454545454544L12.362637362637363,233.14909090909092L14.835164835164836,227.6727272727273L17.30769230769231,215.04L19.78021978021978,209.52L22.252747252747252,224.32363636363635L24.725274725274726,238.63636363636363L27.197802197802197,252.36545454545455L29.67032967032967,257.24727272727273L32.14285714285714,232.88727272727274L34.61538461538462,223.56545454545454L37.08791208791209,220.48363636363638L39.56043956043956,225.13090909090906L42.032967032967036,233.1381818181818L44.505494505494504,253.0909090909091L46.97802197802198,274.7672727272727L49.45054945054945,284.51454545454544L51.92307692307693,247.52727272727273L54.395604395604394,216.17454545454547L56.86813186813187,261.8727272727273L59.34065934065934,223.2L61.81318681318682,248.15999999999997L64.28571428571428,235.7290909090909L66.75824175824175,230.77090909090907L69.23076923076924,241.29818181818183L71.7032967032967,254.52545454545455L74.17582417582418,269.20363636363635L76.64835164835165,256.3963636363636L79.12087912087912,258.45272727272726L81.59340659340658,231.0981818181818L84.06593406593407,197.62363636363636L86.53846153846155,178.34181818181818L89.01098901098901,221.05636363636364L91.48351648351648,209.84727272727275L93.95604395604396,226.68545454545455L96.42857142857142,255.15818181818182L98.9010989010989,252.93818181818182L101.37362637362638,223.98545454545456L103.84615384615385,269.5363636363636L106.31868131868131,231.29454545454547L108.79120879120879,213.27818181818182L111.26373626373626,197.02909090909094L113.73626373626374,230.54727272727274L116.20879120879123,248.49818181818182L118.68131868131869,250.27636363636364L121.15384615384615,233.03454545454548L123.62637362637363,260.24727272727273L126.0989010989011,214.83272727272728L128.57142857142856,214.12363636363636L131.04395604395606,233.39454545454547L133.5164835164835,251.4218181818182L135.98901098901098,233.91272727272727L138.46153846153848,226.43454545454546L140.93406593406593,231.8290909090909L143.4065934065934,226.14000000000001L145.87912087912088,241.88181818181818L148.35164835164835,262.40181818181816L150.82417582417582,252.59454545454545L153.2967032967033,246.33272727272728L155.76923076923077,228.83454545454546L158.24175824175825,238.86545454545455L160.71428571428572,234.12L163.18681318681317,221.04L165.65934065934067,208.13454545454545L168.13186813186815,262.87636363636364L170.5013736263736,186.79636363636365L172.9739010989011,206.04000000000002L175.44642857142858,199.4018181818182L177.91895604395603,177.41454545454548L180.39148351648353,166.92545454545456L182.86401098901098,202.14L185.33653846153845,217.17818181818183L187.80906593406593,204.58909090909088L190.2815934065934,189.2509090909091L192.75412087912088,181.42363636363635L195.22664835164835,264.5290909090909L197.69917582417582,230.98363636363635L200.1717032967033,217.77818181818182L202.64423076923077,171.61636363636364L205.11675824175825,189.56727272727272L207.58928571428572,185.62909090909093L210.0618131868132,188.66727272727275L212.53434065934064,176.42727272727274L215.00686813186815,171.13090909090909L217.47939560439562,117.44181818181819L219.95192307692307,231.80727272727273L222.42445054945057,197.2690909090909L224.89697802197801,182.59636363636363L227.3695054945055,147.36545454545453L229.84203296703296,153.78545454545457L232.31456043956047,235.06363636363636L234.78708791208794,118.03636363636365L237.2596153846154,127.64727272727274L239.73214285714286,131.9618181818182L242.2046703296703,179.66181818181818L244.67719780219778,141.72L247.14972527472528,169.76727272727274L249.62225274725276,172.45090909090908L252.09478021978023,100.36363636363637L254.56730769230768,145.1290909090909L257.03983516483515,201.44727272727275L259.5123626373626,151.4781818181818L261.9848901098901,147.3109090909091L264.4574175824176,159.68727272727276L266.92994505494505,135.40363636363634L269.4024725274725,208.55454545454543L271.875,156.4690909090909L274.3475274725275,201.98181818181817L276.82005494505495,108.88363636363637L279.2925824175824,102.60545454545453L281.7651098901099,160.08L284.2376373626374,221.55272727272728L286.7101648351648,151.35272727272726L289.1826923076923,207.71454545454546L291.6552197802198,159.66L294.12774725274727,159.14181818181817L296.60027472527474,165.98181818181817L299.07280219780216,136.32545454545456L301.54532967032964,157.60363636363635L304.01785714285717,152.2581818181818L306.49038461538464,268.5709090909091L308.9629120879121,129.78L311.43543956043953,122.57999999999998L313.907967032967,114.09818181818181L316.3804945054945,147.38727272727274L318.853021978022,135.87818181818182L321.32554945054943,103.37454545454547L323.7980769230769,280.3690909090909L326.2706043956044,259.44545454545454L328.74313186813185,212.94L331.2156593406594,115.83818181818182L333.6881868131868,103.89272727272727L336.1607142857143,120.73636363636365L338.63324175824175,92.88545454545454L341.1057692307692,101.57454545454546L343.5782967032967,112.45636363636363L346.0508241758242,102.58909090909091L348.52335164835165,97.2218181818182L350.9958791208791,168.09818181818184L353.4684065934066,105.82909090909092L355.9409340659341,130.7018181818182L358.4134615384615,158.03454545454548L360.885989010989,109.01454545454544L363.3585164835165,162.19636363636366L365.83104395604397,175.01454545454547L368.30357142857144,180.59454545454545L370.77609890109886,80.74909090909091L373.2486263736264,87.36L375.72115384615387,113.21454545454544L378.19368131868134,102.57818181818182L380.66620879120876,90.15272727272729L383.13873626373623,108.20727272727272L385.6112637362637,97.34181818181817L388.08379120879124,87.68181818181817L390.5563186813187,78.18000000000002L393.02884615384613,93.27818181818182L395.5013736263736,223.76727272727274L397.9739010989011,106.25999999999999L400.44642857142856,86.95636363636365L402.9189560439561,188.17090909090908L405.3914835164835,96.42L407.864010989011,95.84181818181817L410.33653846153845,158.08363636363637L412.8090659340659,125.80363636363637L415.2815934065934,224.86363636363635L417.7541208791209,155.98909090909092L420.22664835164835,161.66727272727272L422.6991758241758,138.90545454545452L425.1717032967033,86.37818181818182L427.6442307692308,89.50909090909092L430.11675824175825,100.82181818181819L432.5892857142857,144.70363636363635L435.0618131868132,94.2109090909091L437.53434065934067,97.07454545454546L440.00686813186815,103.99090909090908L442.47939560439556,137.98363636363635L444.9519230769231,119.09454545454547L447.42445054945057,103.18363636363637L449.89697802197804,111.20181818181818L452.36950549450546,115.98545454545456L454.84203296703294,152.68363636363637L457.3145604395604,146.04545454545453L459.7870879120879,164.7L462.25961538461536,136.05272727272725L464.7321428571429,136.60909090909092L467.20467032967036,93.36000000000001L469.67719780219784,92.88L472.1497252747253,176.61272727272726L474.6222527472528,96.87818181818182L477.0947802197802,83.83636363636361L479.5673076923077,118.97454545454545L482.03983516483515,98.62363636363636L484.5123626373626,94.4890909090909L486.9848901098901,139.9690909090909L489.4574175824175,164.06727272727272L491.929945054945,119.51454545454546L494.4024725274726,176.66727272727275L496.87500000000006,184.98545454545456L499.3475274725275,182.67818181818183L501.82005494505495,147.33818181818182L504.2925824175824,80.40545454545455L506.7651098901099,85.32545454545453L509.2376373626374,92.39454545454544L511.7101648351648,105.30545454545454L514.1826923076923,122.88545454545454L516.6552197802198,109.64181818181818L519.1277472527472,108.12000000000002L521.6002747252747,152.23636363636362L524.0728021978023,89.99454545454543L526.5453296703297,98.00181818181817L529.0178571428571,80.27999999999999L531.4903846153846,121.46727272727273L533.9629120879121,93.3981818181818L536.4354395604396,98.07818181818182L538.907967032967,184.25454545454545L541.3804945054944,102.72000000000001L543.853021978022,96.77454545454546L546.3255494505494,55.974545454545456L548.798076923077,98.05090909090907L551.2706043956044,95.53090909090909L553.7431318681319,121.58727272727275L556.2156593406594,118.14000000000001L558.6881868131868,88.69090909090907L561.1607142857143,95.51454545454547L563.6332417582418,68.79818181818182L566.1057692307692,154.9690909090909L568.5782967032967,120.91090909090909L571.0508241758241,99.72000000000001L573.5233516483516,129.95454545454547L575.9958791208791,123.64363636363638L578.4684065934066,147.26181818181817L580.9409340659341,90.27272727272727L583.4134615384615,100.74L585.8859890109891,101.02909090909091L588.3585164835165,98.56363636363638L590.8310439560439,151.51090909090908L593.3035714285714,94.94727272727272L595.7760989010989,106.91454545454545L598.2486263736264,120.41454545454545L600.7211538461538,121.17818181818181L603.1936813186812,211.26L605.6662087912089,92.68363636363635L608.1387362637363,94.64181818181817L610.6112637362637,81.22363636363636L613.0837912087912,179.3890909090909L615.5563186813187,83.91272727272727L618.0288461538462,107.75999999999999L620.5013736263736,88.77272727272727L622.9739010989011,85.56545454545454L625.4464285714286,77.87454545454544L627.918956043956,140.95636363636362L630.3914835164835,81.45818181818181L632.864010989011,97.11818181818182L635.3365384615385,80.31272727272727L637.809065934066,99.96545454545456L640.2815934065934,70.48363636363636L642.7541208791209,80.66181818181818L645.2266483516484,82.71272727272728L647.6991758241758,65.58545454545455L650.1717032967033,11.22545454545454L652.6442307692307,90.80727272727273L655.1167582417582,85.81636363636363L657.5892857142857,69.77454545454546L660.0618131868132,66.24L662.5343406593407,98.19818181818181L665.0068681318681,65.7709090909091L667.4793956043957,73.10727272727271L669.9519230769231,93.34909090909089L672.4244505494505,118.67454545454544L674.896978021978,89.73272727272726L677.3695054945055,112.76181818181817L679.842032967033,221.7218181818182L682.3145604395604,99.19636363636363L684.7870879120878,121.28727272727275L687.2596153846154,145.51090909090908L689.7321428571429,114L692.2046703296704,114.87272727272726L694.6771978021978,196.8109090909091L697.1497252747253,99.9709090909091L699.6222527472528,113.2090909090909L702.0947802197802,107.73272727272727L704.5673076923077,114.81272727272727L707.0398351648352,107.86909090909093L709.5123626373626,101.47636363636364L711.9848901098901,204.35454545454544L714.4574175824175,147.47454545454548L716.929945054945,131.68363636363637L719.4024725274726,125.40545454545455L721.875,237.09818181818184L724.3475274725275,108.54L726.820054945055,181.40727272727275L729.2925824175825,103.61454545454546L731.7651098901099,98.20363636363635L734.2376373626373,103.96363636363638L736.7101648351648,122.8909090909091L739.1826923076923,240.85090909090908L741.6552197802198,117.68181818181816L744.1277472527472,188.98363636363638L746.6002747252747,145.08545454545455L749.0728021978023,187.86545454545453L751.5453296703297,133.8709090909091L754.0178571428571,148.48363636363638L756.4903846153846,169.91454545454548L759.065934065934,138.28363636363636L761.5384615384615,134.8090909090909L764.010989010989,135.95454545454544L766.4835164835165,178.36909090909091L768.9560439560439,197.01272727272726L771.4285714285713,216.69272727272727L773.901098901099,202.20545454545456L776.3736263736264,144.0709090909091L778.8461538461539,225.7690909090909L781.3186813186813,212.43272727272728L783.7912087912088,186.52363636363637L786.2637362637363,169.11818181818182L788.7362637362637,220.3690909090909L791.2087912087912,233.55818181818182L793.6813186813187,227.18727272727273L796.1538461538461,175.42909090909092L798.6263736263736,177.6981818181818L801.098901098901,162.18545454545458L803.5714285714287,192.69818181818184L806.0439560439561,209.5090909090909L808.5164835164835,266.74363636363637L810.989010989011,169.84363636363636L813.4615384615385,155.72727272727272L815.934065934066,186.41454545454548L818.4065934065934,265.38L820.8791208791208,251.85272727272726L823.3516483516484,242.21454545454546L825.8241758241758,281.0672727272727L828.2967032967033,265.52727272727276L830.7692307692308,220.36363636363637L833.2417582417582,201.8018181818182L835.7142857142858,198.22363636363636L838.1868131868132,192.58363636363637L840.6593406593406,228.17999999999998L843.1318681318681,233.76545454545453L845.6043956043956,273.3109090909091L848.0769230769231,212.33454545454546L850.5494505494505,225.91636363636363L853.021978021978,210.07090909090908L855.4945054945055,233.62363636363636L857.967032967033,236.26909090909092L860.4395604395605,230.48727272727274L862.9120879120879,216.43636363636364L865.3846153846154,264.5181818181818L867.8571428571429,225.81272727272727L870.3296703296703,245.97272727272727L872.8021978021978,234.97636363636363L875.2747252747253,253.2327272727273L877.7472527472527,250.83272727272728L880.2197802197802,220.33636363636364L882.6923076923076,249.56181818181818L885.1648351648352,266.6890909090909L887.6373626373627,246.88363636363636L890.1098901098901,230.52545454545452L892.5824175824176,232.26545454545453L895.054945054945,261.5072727272727L897.5274725274726,278.22L900,233.28545454545454" stroke="#e45756" stroke-width="2"/></g></g><path class="foreground" aria-hidden="true" d="" display="none"/></g><g transform="translate(0,0)"><path class="background" aria-hidden="true" d="M0,0h900v300h-900Z"/><g><g class="mark-line role-mark marks" role="graphics-object" aria-roledescription="line mark container"><path aria-label="label: MC; Date: Jan 01, 2019; trips: 1266" role="graphics-symbol" aria-roledescription="line mark" d="M0,293.0945454545454L2.4725274725274726,291.7636363636364L4.945054945054945,291.36545454545455L7.417582417582418,290.7L9.89010989010989,296.28545454545457L12.362637362637363,291.8618181818182L14.835164835164836,293.0509090909091L17.30769230769231,291.58363636363634L19.78021978021978,291.4909090909091L22.252747252747252,292.98545454545456L24.725274725274726,294.40363636363634L27.197802197802197,294.64363636363635L29.67032967032967,294.96L32.14285714285714,293.4709090909091L34.61538461538462,292.3472727272727L37.08791208791209,292.19454545454545L39.56043956043956,292.9145454545454L42.032967032967036,293.4381818181818L44.505494505494504,294.65999999999997L46.97802197802198,297.1090909090909L49.45054945054945,298.5818181818182L51.92307692307693,295.02000000000004L54.395604395604394,292.1290909090909L56.86813186813187,295.68545454545455L59.34065934065934,292.80545454545455L61.81318681318682,293.8090909090909L64.28571428571428,292.16181818181815L66.75824175824175,293.36727272727273L69.23076923076924,294.3981818181818L71.7032967032967,296.2581818181818L74.17582417582418,297.46363636363634L76.64835164835165,296.26363636363635L79.12087912087912,295.2163636363636L81.59340659340658,290.72727272727275L84.06593406593407,289.8272727272727L86.53846153846155,286.8272727272727L89.01098901098901,292.3090909090909L91.48351648351648,291.3872727272727L93.95604395604396,292.62L96.42857142857142,294.21818181818185L98.9010989010989,294.33272727272725L101.37362637362638,292.3090909090909L103.84615384615385,297.11454545454546L106.31868131868131,293.7818181818182L108.79120879120879,291.8781818181818L111.26373626373626,289.7509090909091L113.73626373626374,291.00545454545454L116.20879120879123,293.11636363636364L118.68131868131869,294.30545454545455L121.15384615384615,293.22545454545457L123.62637362637363,296.3781818181818L126.0989010989011,291.3381818181818L128.57142857142856,291.48L131.04395604395606,291.7090909090909L133.5164835164835,293.9890909090909L135.98901098901098,294.2509090909091L138.46153846153848,293.0890909090909L140.93406593406593,294.05454545454546L143.4065934065934,292.8218181818182L145.87912087912088,294.25636363636363L148.35164835164835,295.8436363636364L150.82417582417582,294.0709090909091L153.2967032967033,295.0309090909091L155.76923076923077,293.82L158.24175824175825,294.9218181818182L160.71428571428572,293.62363636363636L163.18681318681317,292.41272727272724L165.65934065934067,288.39272727272726L168.13186813186815,295.5327272727273L170.5013736263736,287.72727272727275L172.9739010989011,290.13272727272727L175.44642857142858,289.47818181818184L177.91895604395603,287.0781818181818L180.39148351648353,286.13454545454545L182.86401098901098,286.16727272727275L185.33653846153845,288.52909090909094L187.80906593406593,289.55454545454546L190.2815934065934,287.5527272727273L192.75412087912088,287.09999999999997L195.22664835164835,295.86L197.69917582417582,292.2927272727273L200.1717032967033,289.08L202.64423076923077,281.4927272727273L205.11675824175825,287.4654545454546L207.58928571428572,286.6090909090909L210.0618131868132,287.8690909090909L212.53434065934064,286.7290909090909L215.00686813186815,286.0581818181818L217.47939560439562,273.6272727272727L219.95192307692307,291.89454545454544L222.42445054945057,288.15272727272725L224.89697802197801,287.1709090909091L227.3695054945055,283.15090909090907L229.84203296703296,283.3527272727273L232.31456043956047,293.13272727272727L234.78708791208794,271.4781818181818L237.2596153846154,274.09090909090907L239.73214285714286,280.1018181818182L242.2046703296703,286.5L244.67719780219778,281.81454545454545L247.14972527472528,285.86727272727273L249.62225274725276,286.59272727272725L252.09478021978023,268.68L254.56730769230768,279.2945454545454L257.03983516483515,289.3090909090909L259.5123626373626,283.9145454545455L261.9848901098901,283.46727272727276L264.4574175824176,285.76363636363635L266.92994505494505,281.73818181818183L269.4024725274725,289.10181818181815L271.875,280.61454545454546L274.3475274725275,289.20545454545453L276.82005494505495,277.61454545454546L279.2925824175824,277.25454545454545L281.7651098901099,284.4709090909091L284.2376373626374,292.61454545454546L286.7101648351648,280.68545454545455L289.1826923076923,288.7309090909091L291.6552197802198,284.9618181818182L294.12774725274727,284.6454545454545L296.60027472527474,286.1290909090909L299.07280219780216,282.60545454545456L301.54532967032964,284.90181818181816L304.01785714285717,280.3036363636364L306.49038461538464,296.2909090909091L308.9629120879121,280.4890909090909L311.43543956043953,280.1781818181818L313.907967032967,278.65636363636366L316.3804945054945,283.28181818181815L318.853021978022,282.18545454545455L321.32554945054943,270.6872727272727L323.7980769230769,297.48L326.2706043956044,295.29818181818183L328.74313186813185,290.90181818181816L331.2156593406594,279.59999999999997L333.6881868131868,277.32L336.1607142857143,278.94545454545454L338.63324175824175,269.75454545454545L341.1057692307692,272.50363636363636L343.5782967032967,277.9636363636364L346.0508241758242,277.84909090909093L348.52335164835165,275.19272727272727L350.9958791208791,285.03272727272724L353.4684065934066,276.14727272727276L355.9409340659341,273.88909090909095L358.4134615384615,279.03272727272724L360.885989010989,270.3545454545455L363.3585164835165,284.9563636363637L365.83104395604397,286.5L368.30357142857144,287.76L370.77609890109886,275.32363636363635L373.2486263736264,268.5272727272727L375.72115384615387,274.26545454545453L378.19368131868134,276.3709090909091L380.66620879120876,274.75636363636363L383.13873626373623,277.52181818181816L385.6112637362637,275.94545454545454L388.08379120879124,274.46181818181816L390.5563186813187,265.6472727272727L393.02884615384613,266.9290909090909L395.5013736263736,290.8472727272727L397.9739010989011,277.07454545454544L400.44642857142856,274.1290909090909L402.9189560439561,286.2218181818182L405.3914835164835,274.8272727272727L407.864010989011,266.1381818181818L410.33653846153845,279.2290909090909L412.8090659340659,278.65636363636366L415.2815934065934,291.00545454545454L417.7541208791209,284.52L420.22664835164835,284.5854545454545L422.6991758241758,278.87454545454545L425.1717032967033,265.16181818181815L427.6442307692308,266.7927272727273L430.11675824175825,276.2290909090909L432.5892857142857,280.6636363636364L435.0618131868132,274.1454545454546L437.53434065934067,274.9418181818182L440.00686813186815,276.77454545454543L442.47939560439556,274.4236363636364L444.9519230769231,275.71090909090907L447.42445054945057,275.45454545454544L449.89697802197804,277.04181818181814L452.36950549450546,278.4709090909091L454.84203296703294,279.3272727272727L457.3145604395604,280.1290909090909L459.7870879120879,281.4927272727273L462.25961538461536,276.02181818181816L464.7321428571429,279.4145454545455L467.20467032967036,274.1127272727273L469.67719780219784,274.64727272727276L472.1497252747253,285.8127272727273L474.6222527472528,274.96363636363634L477.0947802197802,268.3036363636364L479.5673076923077,271.8709090909091L482.03983516483515,274.2709090909091L484.5123626373626,274.86545454545455L486.9848901098901,282.15818181818184L489.4574175824175,283.31454545454545L491.929945054945,278.5963636363636L494.4024725274726,282.97636363636366L496.87500000000006,284.9836363636364L499.3475274725275,286.5981818181818L501.82005494505495,283.3636363636364L504.2925824175824,273.3709090909091L506.7651098901099,273.14727272727276L509.2376373626374,274.46181818181816L511.7101648351648,270.28909090909093L514.1826923076923,273.66545454545457L516.6552197802198,276.92727272727274L519.1277472527472,276.57272727272726L521.6002747252747,282.5018181818182L524.0728021978023,275.29636363636365L526.5453296703297,274.8218181818182L529.0178571428571,271.0854545454546L531.4903846153846,273.6709090909091L533.9629120879121,275.0072727272727L536.4354395604396,274.44545454545454L538.907967032967,287.0618181818182L541.3804945054944,277.1509090909091L543.853021978022,275.52L546.3255494505494,268.4236363636364L548.798076923077,269.38363636363636L551.2706043956044,274.99636363636364L553.7431318681319,279.5781818181818L556.2156593406594,279.0436363636363L558.6881868131868,274.6909090909091L561.1607142857143,276.24L563.6332417582418,271.7509090909091L566.1057692307692,278.9563636363636L568.5782967032967,278.57454545454544L571.0508241758241,275.1545454545455L573.5233516483516,279.20181818181817L575.9958791208791,279.2509090909091L578.4684065934066,280.6036363636364L580.9409340659341,267.48545454545456L583.4134615384615,269.81454545454545L585.8859890109891,277.65818181818184L588.3585164835165,274.9145454545455L590.8310439560439,283.1781818181818L593.3035714285714,274.1618181818182L595.7760989010989,275.71090909090907L598.2486263736264,273.79636363636365L600.7211538461538,273.9381818181818L603.1936813186812,288.9818181818182L605.6662087912089,274.72363636363633L608.1387362637363,276.12545454545455L610.6112637362637,275.3618181818182L613.0837912087912,285.9981818181818L615.5563186813187,270.55636363636364L618.0288461538462,273.73636363636365L620.5013736263736,275.69454545454545L622.9739010989011,276.78L625.4464285714286,273.18545454545455L627.918956043956,282.11454545454546L630.3914835164835,275.9836363636364L632.864010989011,272.38363636363636L635.3365384615385,270.4418181818182L637.809065934066,278.0945454545454L640.2815934065934,273.8509090909091L642.7541208791209,273.8290909090909L645.2266483516484,275.84181818181816L647.6991758241758,275.3945454545455L650.1717032967033,257.3890909090909L652.6442307692307,270.8727272727273L655.1167582417582,276.34363636363634L657.5892857142857,275.7872727272727L660.0618131868132,274.6909090909091L662.5343406593407,277.26545454545453L665.0068681318681,274.53272727272724L667.4793956043957,268.4127272727273L669.9519230769231,271.6418181818182L672.4244505494505,279.4309090909091L674.896978021978,276.2072727272727L677.3695054945055,278.8527272727273L679.842032967033,291.4581818181818L682.3145604395604,277.8218181818182L684.7870879120878,274.44545454545454L687.2596153846154,279.98727272727274L689.7321428571429,280.2490909090909L692.2046703296704,280.32L694.6771978021978,288.12545454545455L697.1497252747253,278.90727272727275L699.6222527472528,281.1272727272727L702.0947802197802,274.96363636363634L704.5673076923077,276.4581818181818L707.0398351648352,277.95272727272726L709.5123626373626,278.9563636363636L711.9848901098901,289.8109090909091L714.4574175824175,285.12L716.929945054945,282.60545454545456L719.4024725274726,276.06L721.875,292.16181818181815L724.3475274725275,279.85636363636365L726.820054945055,288.12L729.2925824175825,279.45272727272726L731.7651098901099,278.73818181818183L734.2376373626373,279.2509090909091L736.7101648351648,275.82545454545453L739.1826923076923,292.79454545454547L741.6552197802198,281.0290909090909L744.1277472527472,287.59090909090907L746.6002747252747,284.35090909090906L749.0728021978023,289.0854545454545L751.5453296703297,283.4890909090909L754.0178571428571,281.07272727272726L756.4903846153846,284.3018181818182L759.065934065934,283.40727272727275L761.5384615384615,282.45818181818186L764.010989010989,282.3490909090909L766.4835164835165,287.85272727272724L768.9560439560439,289.7072727272727L771.4285714285713,290.24727272727273L773.901098901099,288.78545454545457L776.3736263736264,284.82L778.8461538461539,292.3636363636364L781.3186813186813,291.3218181818182L783.7912087912088,288.9490909090909L786.2637362637363,286.70727272727277L788.7362637362637,290.72727272727275L791.2087912087912,292.3963636363636L793.6813186813187,293.09999999999997L796.1538461538461,288.0490909090909L798.6263736263736,287.8963636363636L801.098901098901,286.7836363636364L803.5714285714287,289.26545454545453L806.0439560439561,289.4127272727273L808.5164835164835,296.19272727272727L810.989010989011,287.81454545454545L813.4615384615385,286.02L815.934065934066,288.96000000000004L818.4065934065934,296.1709090909091L820.8791208791208,295.18363636363637L823.3516483516484,293.5090909090909L825.8241758241758,297.7745454545455L828.2967032967033,296.7327272727273L830.7692307692308,292.6581818181818L833.2417582417582,290.87454545454545L835.7142857142858,290.4054545454545L838.1868131868132,289.3472727272727L840.6593406593406,291.7418181818182L843.1318681318681,291.9L845.6043956043956,297.2509090909091L848.0769230769231,291.3490909090909L850.5494505494505,292.8L853.021978021978,290.96181818181816L855.4945054945055,293.5309090909091L857.967032967033,293.07272727272726L860.4395604395605,292.56545454545454L862.9120879120879,292.3363636363636L865.3846153846154,296.82L867.8571428571429,293.13272727272727L870.3296703296703,295.4181818181818L872.8021978021978,293.69454545454545L875.2747252747253,294.92727272727274L877.7472527472527,294.3981818181818L880.2197802197802,292.5218181818182L882.6923076923076,294.75272727272727L885.1648351648352,296.6018181818182L887.6373626373627,294.88363636363636L890.1098901098901,293.41636363636366L892.5824175824176,291.9054545454545L895.054945054945,295.3963636363636L897.5274725274726,297.63272727272727L900,292.8218181818182" stroke="#4c78a8" stroke-width="2"/></g></g><path class="foreground" aria-hidden="true" d="" display="none"/></g></g><g class="mark-group role-legend" role="graphics-symbol" aria-roledescription="legend" aria-label="Symbol legend titled 'label' for stroke color with 3 values: MC, MI, MS"><g transform="translate(920,0)"><path class="background" aria-hidden="true" d="M0,0h32v53h-32Z" pointer-events="none"/><g><g class="mark-group role-legend-entry"><g transform="translate(0,16)"><path class="background" aria-hidden="true" d="M0,0h0v0h0Z" pointer-events="none"/><g><g class="mark-group role-scope" role="graphics-object" aria-roledescription="group mark container"><g transform="translate(0,0)"><path class="background" aria-hidden="true" d="M0,0h31.5517578125v11h-31.5517578125Z" pointer-events="none" opacity="1"/><g><g class="mark-symbol role-legend-symbol" pointer-events="none"><path transform="translate(6,6)" d="M-5,0L5,0" stroke="#4c78a8" stroke-width="1.5" opacity="1"/></g><g class="mark-text role-legend-label" pointer-events="none"><text text-anchor="start" transform="translate(16,9)" font-family="sans-serif" font-size="10px" fill="#000" opacity="1">MC</text></g></g><path class="foreground" aria-hidden="true" d="" pointer-events="none" display="none"/></g><g transform="translate(0,13)"><path class="background" aria-hidden="true" d="M0,0h31.5517578125v11h-31.5517578125Z" pointer-events="none" opacity="1"/><g><g class="mark-symbol role-legend-symbol" pointer-events="none"><path transform="translate(6,6)" d="M-5,0L5,0" stroke="#f58518" stroke-width="1.5" opacity="1"/></g><g class="mark-text role-legend-label" pointer-events="none"><text text-anchor="start" transform="translate(16,9)" font-family="sans-serif" font-size="10px" fill="#000" opacity="1">MI</text></g></g><path class="foreground" aria-hidden="true" d="" pointer-events="none" display="none"/></g><g transform="translate(0,26)"><path class="background" aria-hidden="true" d="M0,0h31.5517578125v11h-31.5517578125Z" pointer-events="none" opacity="1"/><g><g class="mark-symbol role-legend-symbol" pointer-events="none"><path transform="translate(6,6)" d="M-5,0L5,0" stroke="#e45756" stroke-width="1.5" opacity="1"/></g><g class="mark-text role-legend-label" pointer-events="none"><text text-anchor="start" transform="translate(16,9)" font-family="sans-serif" font-size="10px" fill="#000" opacity="1">MS</text></g></g><path class="foreground" aria-hidden="true" d="" pointer-events="none" display="none"/></g></g></g><path class="foreground" aria-hidden="true" d="" pointer-events="none" display="none"/></g></g><g class="mark-text role-legend-title" pointer-events="none"><text text-anchor="start" transform="translate(0,9)" font-family="sans-serif" font-size="11px" font-weight="bold" fill="#000" opacity="1">label</text></g></g><path class="foreground" aria-hidden="true" d="" pointer-events="none" display="none"/></g></g></g><path class="foreground" aria-hidden="true" d="" display="none"/></g></g></g></svg>